<svg xmlns="http://www.w3.org/2000/svg" viewBox="0 0 132 42" width="132" height="42" role="img" ><defs><path id="gBarlowCondensedExtraBold-84" d="M376 700H515Q520 700 523.5 696.5Q527 693 527 688V12Q527 7 523.5 3.5Q520 0 515 0H373Q368 0 364.5 3.5Q361 7 361 12V441Q361 445 359 445.5Q357 446 355 443L285 321Q281 313 279 313Q277 313 272 321L202 443Q200 446 198 446Q196 446 196 442V12Q196 7 192.5 3.5Q189 0 184 0H42Q37 0 33.5 3.5Q30 7 30 12V688Q30 693 33.5 696.5Q37 700 42 700H182Q192 700 197 692L277 547Q280 543 283 547L361 692Q365 700 376 700Z"/><path id="gBarlowCondensedExtraBold-4" d="M325 11 312 98Q312 103 306 103H198Q192 103 192 98L180 11Q179 0 167 0H25Q12 0 15 13L160 689Q162 700 173 700H336Q347 700 349 689L493 13L494 9Q494 0 483 0H338Q326 0 325 11ZM218 231H285Q289 231 289 236L253 464Q252 468 250 468Q248 468 247 464L214 236Q214 231 218 231Z"/><path id="gBarlowCondensedExtraBold-65" d="M35 12V688Q35 693 38.5 696.5Q42 700 47 700H189Q194 700 197.5 696.5Q201 693 201 688V12Q201 7 197.5 3.5Q194 0 189 0H47Q42 0 38.5 3.5Q35 7 35 12Z"/><path id="gBarlowCondensedExtraBold-85" d="M335 700H475Q480 700 483.5 696.5Q487 693 487 688V12Q487 7 483.5 3.5Q480 0 475 0H316Q305 0 302 10L203 358Q202 361 199.5 361.5Q197 362 197 358L199 12Q199 7 195.5 3.5Q192 0 187 0H47Q42 0 38.5 3.5Q35 7 35 12V688Q35 693 38.5 696.5Q42 700 47 700H204Q215 700 218 690L318 340Q319 337 321.5 337Q324 337 324 341L323 688Q323 693 326.5 696.5Q330 700 335 700Z"/><path id="gBarlowCondensedExtraBold-79" d="M35 12V688Q35 693 38.5 696.5Q42 700 47 700H189Q194 700 197.5 696.5Q201 693 201 688V147Q201 142 206 142H410Q415 142 418.5 138.5Q422 135 422 130V12Q422 7 418.5 3.5Q415 0 410 0H47Q42 0 38.5 3.5Q35 7 35 12Z"/><path id="gBarlowCondensedExtraBold-28" d="M249 0H47Q42 0 38.5 3.5Q35 7 35 12V688Q35 693 38.5 696.5Q42 700 47 700H223Q327 700 386.5 651.5Q446 603 446 506Q446 410 383 365Q378 362 382 359Q458 303 458 195Q458 101 399 50.5Q340 0 249 0ZM201 553V425Q201 420 206 420H225Q253 420 268 437.5Q283 455 283 488Q283 522 268 540Q253 558 225 558H206Q201 558 201 553ZM292 220Q292 257 277 279Q262 301 237 301H206Q201 301 201 296V148Q201 143 206 143H236Q262 143 277 163Q292 183 292 220Z"/><path id="gBarlowCondensedExtraBold-580" d="M42 121 118 278Q119 281 118 284L42 441Q40 445 40 447Q40 455 51 455H164Q174 455 178 446L251 289Q253 285 253 281Q253 279 251 273L178 116Q174 107 164 107H51Q44 107 41.5 110.5Q39 114 42 121ZM208 121 284 278Q285 281 284 284L208 441Q206 445 206 447Q206 455 217 455H330Q340 455 344 446L417 289Q419 285 419 281Q419 279 417 273L344 116Q340 107 330 107H217Q210 107 207.5 110.5Q205 114 208 121Z"/></defs><rect x="1" y="1" width="130" height="40" rx="4" fill="#0b3b2e" stroke="#8ff0a4" stroke-width="2" /><rect x="1" y="1" width="130" height="5" rx="0" fill="#8ff0a4" stroke="none" stroke-width="1" /><g fill="#eafff0" ><use href="#gBarlowCondensedExtraBold-84" transform="translate(25.85 27.00) scale(0.01400 -0.01400)"/><use href="#gBarlowCondensedExtraBold-4" transform="translate(35.66 27.00) scale(0.01400 -0.01400)"/><use href="#gBarlowCondensedExtraBold-65" transform="translate(44.77 27.00) scale(0.01400 -0.01400)"/><use href="#gBarlowCondensedExtraBold-85" transform="translate(50.06 27.00) scale(0.01400 -0.01400)"/><use href="#gBarlowCondensedExtraBold-79" transform="translate(64.17 27.00) scale(0.01400 -0.01400)"/><use href="#gBarlowCondensedExtraBold-4" transform="translate(72.40 27.00) scale(0.01400 -0.01400)"/><use href="#gBarlowCondensedExtraBold-28" transform="translate(81.52 27.00) scale(0.01400 -0.01400)"/><use href="#gBarlowCondensedExtraBold-580" transform="translate(99.79 27.00) scale(0.01400 -0.01400)"/></g></svg>