<svg xmlns="http://www.w3.org/2000/svg" viewBox="0 0 848 340" width="848" height="340" role="img" ><defs><path id="gBarlowCondensedMedium-490" d="M125 700H205Q215 700 215 690V10Q215 0 205 0H129Q119 0 119 10V595Q119 597 117.5 598.5Q116 600 115 599L26 576L22 575Q16 575 14 584L10 640Q10 649 17 652L113 697Q119 700 125 700Z"/><path id="gBarlowCondensedMedium-495" d="M389 215Q389 188 385 146Q379 72 335 32Q291 -8 217 -8Q149 -8 105.5 29Q62 66 52 138Q46 168 46 208L45 534Q45 613 92 660.5Q139 708 216 708Q287 708 332.5 660.5Q378 613 378 534V512Q378 502 368 502H292Q282 502 282 512V530Q282 571 263 596.5Q244 622 216 622Q183 622 162.5 596.5Q142 571 142 530V420Q142 415 147 418Q176 447 220 447Q288 447 331 405Q374 363 382 293Q389 255 389 215ZM292 221Q292 252 285 299Q271 364 216 364Q161 364 147 296Q142 264 142 221Q142 182 146 149Q160 75 216 75Q245 75 263.5 95Q282 115 288 154Q292 186 292 221Z"/><path id="gBarlowCondensedBold-119" d="M30 175V204Q30 209 33.5 212.5Q37 216 42 216H157Q162 216 165.5 212.5Q169 209 169 204V182Q169 151 185 132Q201 113 225 113Q249 113 265 131Q281 149 281 178Q281 208 261 229.5Q241 251 183 293Q133 329 102 357Q71 385 49 426Q27 467 27 521Q27 606 80 657Q133 708 220 708Q308 708 361.5 655Q415 602 415 516V492Q415 487 411.5 483.5Q408 480 403 480H288Q283 480 279.5 483.5Q276 487 276 492V519Q276 550 260.5 568.5Q245 587 220 587Q196 587 181 569.5Q166 552 166 521Q166 491 185 468Q204 445 260 404Q322 358 353.5 329.5Q385 301 402.5 266.5Q420 232 420 184Q420 96 366 44Q312 -8 224 -8Q166 -8 122 15Q78 38 54 79.5Q30 121 30 175Z"/><path id="gBarlowCondensedMedium-119" d="M38 171V197Q38 207 48 207H122Q132 207 132 197V176Q132 130 155 102.5Q178 75 214 75Q250 75 273.5 101.5Q297 128 297 171Q297 200 284.5 222Q272 244 251.5 261.5Q231 279 185 313Q134 351 105 378Q76 405 56 443Q36 481 36 532Q36 613 84 660.5Q132 708 209 708Q289 708 337.5 657Q386 606 386 523V498Q386 488 376 488H302Q292 488 292 498V525Q292 570 269 597.5Q246 625 209 625Q174 625 152 600.5Q130 576 130 532Q130 492 152 464.5Q174 437 237 391Q297 346 327.5 318Q358 290 374.5 256.5Q391 223 391 177Q391 93 342 42.5Q293 -8 214 -8Q135 -8 86.5 41.5Q38 91 38 171Z"/><path id="gBarlowCondensedMedium-311" d="M293 509H369Q379 509 379 499V10Q379 0 369 0H293Q283 0 283 10V39Q283 42 281.5 42Q280 42 278 40Q248 -7 182 -7Q122 -7 85 29.5Q48 66 48 141V499Q48 509 58 509H134Q144 509 144 499V162Q144 76 212 76Q246 76 264.5 100.5Q283 125 283 168V499Q283 509 293 509Z"/><path id="gBarlowCondensedMedium-259" d="M48 10V690Q48 700 58 700H134Q144 700 144 690V10Q144 0 134 0H58Q48 0 48 10Z"/><path id="gBarlowCondensedMedium-229" d="M171 513Q171 509 175 509H245Q255 509 255 499V449Q255 439 245 439H175Q171 439 171 435V10Q171 0 161 0H86Q76 0 76 10V435Q76 439 72 439H35Q25 439 25 449V499Q25 509 35 509H72Q76 509 76 513V539Q76 628 113 666.5Q150 705 233 705H246Q256 705 256 695L254 634Q254 624 244 624H234Q201 624 186 602.5Q171 581 171 536Z"/><path id="gBarlowCondensedMedium-299" d="M288 503Q295 499 293 490L278 414Q277 405 266 408Q253 413 238 413Q232 413 220 411Q189 408 168.5 377Q148 346 148 302V10Q148 0 138 0H62Q52 0 52 10V499Q52 509 62 509H138Q148 509 148 499V441Q148 438 149.5 437.5Q151 437 152 440Q181 514 245 514Q270 514 288 503Z"/><path id="gBarlowCondensedMedium-492" d="M373 215Q373 165 364 124Q350 60 311 26Q272 -8 204 -8Q134 -8 89.5 30Q45 68 37 134Q32 171 32 205Q32 215 42 215H118Q128 215 128 205Q130 164 133 147Q139 113 157.5 94.5Q176 76 204 76Q260 76 275 141Q281 179 281 225Q281 279 272 319Q264 347 246.5 362.5Q229 378 204 378Q191 378 177 369Q174 366 170 366Q166 366 163 370L125 409Q120 416 124 423L254 612Q255 613 254 615Q253 617 251 617H49Q39 617 39 627V690Q39 700 49 700H361Q371 700 371 690V624Q371 616 367 611L250 439Q247 436 252 434Q292 428 320.5 396.5Q349 365 362 316Q373 267 373 215Z"/><path id="gBarlowCondensedMedium-491" d="M152 83H381Q391 83 391 73V10Q391 0 381 0H45Q35 0 35 10V76Q35 84 39 89L70 135Q165 272 217 357Q277 459 277 527Q277 572 256.5 598.5Q236 625 203 625Q170 625 150 599Q130 573 131 530V490Q131 480 121 480H43Q33 480 33 490V533Q36 612 84 660Q132 708 207 708Q282 708 328 658Q374 608 374 526Q374 477 356.5 426.5Q339 376 303 318Q278 278 198 159L149 88Q148 86 149 84.5Q150 83 152 83Z"/><path id="gBarlowCondensedMedium-546" d="M37 64Q37 92 55 110Q73 128 101 128Q129 128 147 110Q165 92 165 64Q165 36 147 18Q129 0 101 0Q73 0 55 18Q37 36 37 64Z"/><path id="gBarlowCondensedMedium-489" d="M44 177V523Q44 608 93 659Q142 710 223 710Q304 710 353.5 659Q403 608 403 523V177Q403 92 353.5 41Q304 -10 223 -10Q142 -10 93 41Q44 92 44 177ZM307 171V529Q307 573 284 600Q261 627 223 627Q186 627 163 600Q140 573 140 529V171Q140 127 163 100Q186 73 223 73Q261 73 284 100Q307 127 307 171Z"/><path id="gBarlowCondensedMedium-493" d="M421 263V196Q421 186 411 186H379Q375 186 375 182V10Q375 0 365 0H289Q279 0 279 10V182Q279 186 275 186H29Q19 186 19 196V252Q19 256 21 264L165 692Q168 700 177 700H259Q270 700 267 689L131 278Q130 276 131.5 274.5Q133 273 135 273H275Q279 273 279 277V414Q279 424 289 424H365Q375 424 375 414V277Q375 273 379 273H411Q421 273 421 263Z"/><path id="gBarlowCondensedMedium-496" d="M95 11 264 613Q265 614 263.5 615.5Q262 617 260 617H102Q98 617 98 613V573Q98 563 88 563H29Q19 563 19 573L20 690Q20 700 30 700H356Q366 700 366 690V623Q366 621 364 611L195 8Q193 0 184 0H104Q99 0 96.5 3Q94 6 95 11Z"/><path id="gBarlowCondensedBold-4" d="M325 11 309 107Q309 112 303 112H176Q170 112 170 107L154 11Q153 0 141 0H24Q11 0 14 13L161 689Q163 700 174 700H309Q320 700 322 689L468 13L469 9Q469 0 458 0H338Q326 0 325 11ZM194 221H284Q289 221 288 226L241 499Q240 502 238 502Q236 502 235 499L190 226Q190 221 194 221Z"/><path id="gBarlowCondensedBold-230" d="M279 514H396Q401 514 404.5 510.5Q408 507 408 502V24Q408 -87 355.5 -147Q303 -207 167 -207Q140 -207 125 -206Q113 -205 113 -193V-95Q113 -82 126 -84Q185 -86 215.5 -72.5Q246 -59 256.5 -32Q267 -5 267 39Q267 42 265 42Q263 42 261 39Q243 15 217.5 5.5Q192 -4 168 -4Q99 -4 65 40.5Q31 85 31 164V354Q31 435 65.5 478.5Q100 522 168 522Q229 522 261 477Q263 474 265 475Q267 476 267 479V502Q267 507 270.5 510.5Q274 514 279 514ZM267 175V344Q267 369 253.5 385Q240 401 219 401Q198 401 185 385Q172 369 172 344V175Q172 150 185 134Q198 118 219 118Q240 118 253.5 134Q267 150 267 175Z"/><path id="gBarlowCondensedMedium-240" d="M41 653Q41 681 59 699Q77 717 105 717Q134 717 151.5 699.5Q169 682 169 653Q169 625 151 607Q133 589 105 589Q77 589 59 607Q41 625 41 653ZM58 10V499Q58 509 68 509H144Q154 509 154 499V10Q154 0 144 0H68Q58 0 58 10Z"/><path id="gBarlowCondensedMedium-338" d="M145 9 22 498 21 502Q21 509 30 509H115Q125 509 126 500L198 157Q199 154 200 154Q201 154 202 157L273 500Q275 509 284 509L369 508Q374 508 376.5 505Q379 502 377 497L255 9Q254 0 244 0H156Q147 0 145 9Z"/><path id="gBarlowCondensedMedium-208" d="M369 215H143Q139 215 139 211V157Q139 121 159 98Q179 75 211 75Q239 75 258 92Q277 109 282 136Q285 144 293 144L367 140Q372 140 374.5 137Q377 134 376 130Q369 65 326.5 28.5Q284 -8 211 -8Q134 -8 88.5 35Q43 78 43 150V358Q43 429 88.5 473Q134 517 211 517Q289 517 334 473Q379 429 379 358V225Q379 215 369 215ZM139 352V299Q139 295 143 295H280Q284 295 284 299V352Q284 388 264 411Q244 434 211 434Q179 434 159 411Q139 388 139 352Z"/><path id="gBarlowCondensedMedium-497" d="M311 366Q347 346 363 309Q384 262 384 198Q384 144 370 104Q351 51 310.5 21.5Q270 -8 214 -8Q159 -8 118.5 21Q78 50 59 103Q44 145 44 198Q44 259 62 302Q79 345 118 365Q122 368 118 371Q82 393 65 428Q44 469 44 526Q44 585 65 625Q85 666 124 688.5Q163 711 214 711Q264 711 302.5 689.5Q341 668 362 627Q384 586 384 526Q384 469 364 429Q347 394 311 372Q306 369 311 366ZM139 518Q139 479 151 453Q159 430 175.5 418Q192 406 214 406Q237 406 254 419Q271 432 279 456Q290 483 290 518Q290 557 276 583Q258 628 214 628Q169 628 151 580Q139 555 139 518ZM289 203Q289 246 278 277Q271 303 254 317Q237 331 214 331Q190 331 173 316.5Q156 302 148 274Q139 246 139 204Q139 167 146 140Q154 109 171.5 92Q189 75 214 75Q240 75 258 93Q276 111 283 143Q289 169 289 203Z"/><path id="gBarlowCondensedBold-299" d="M310 510Q318 505 316 495L297 378Q296 367 283 370Q272 374 256 374Q241 374 230 370Q207 366 193 342.5Q179 319 179 288V13Q179 8 175.5 4.5Q172 1 167 1H50Q45 1 41.5 4.5Q38 8 38 13V502Q38 507 41.5 510.5Q45 514 50 514H167Q172 514 175.5 510.5Q179 507 179 502V463Q179 459 180.5 458.5Q182 458 184 461Q211 520 268 520Q295 520 310 510Z"/><path id="gBarlowCondensedMedium-4" d="M325 9 303 124Q303 126 301.5 127Q300 128 298 128H135Q133 128 131.5 127Q130 126 130 124L109 9Q108 0 98 0H22Q17 0 14.5 3Q12 6 13 11L162 691Q164 700 173 700H262Q272 700 273 691L423 11V9Q423 0 414 0H336Q327 0 325 9ZM150 204H283Q286 204 286 208L218 563Q217 565 216 565Q215 565 214 563L147 208Q147 204 150 204Z"/><path id="gBarlowCondensedMedium-230" d="M292 509H368Q378 509 378 499V15Q378 -90 330 -147.5Q282 -205 165 -205L138 -204Q128 -203 128 -193V-129Q128 -119 139 -119Q221 -122 251.5 -86.5Q282 -51 282 24V45Q282 47 280.5 47.5Q279 48 277 46Q243 0 180 0Q114 0 78.5 42.5Q43 85 43 158V358Q43 432 79 474.5Q115 517 180 517Q245 517 277 471Q279 469 280.5 470Q282 471 282 473V499Q282 509 292 509ZM282 164V352Q282 388 262.5 411Q243 434 211 434Q179 434 159 411Q139 388 139 352V164Q139 128 159 105.5Q179 83 211 83Q243 83 262.5 105.5Q282 128 282 164Z"/><path id="gBarlowCondensedMedium-271" d="M43 151V358Q43 429 89 473Q135 517 212 517Q290 517 336 473Q382 429 382 358V151Q382 79 336 35.5Q290 -8 212 -8Q134 -8 88.5 35.5Q43 79 43 151ZM286 158V352Q286 388 265 411Q244 434 212 434Q180 434 159.5 411Q139 388 139 352V158Q139 121 159.5 98.5Q180 76 212 76Q244 76 265 98.5Q286 121 286 158Z"/><path id="gBarlowCondensedMedium-266" d="M385 353V10Q385 0 375 0H299Q289 0 289 10V345Q289 387 271 410Q253 433 221 433Q188 433 169.5 410.5Q151 388 149 347Q149 341 148 341V10Q148 0 138 0H62Q52 0 52 10V499Q52 509 62 509H138Q148 509 148 499V472Q148 470 150 469.5Q152 469 154 472Q190 516 255 516Q318 516 351.5 473.5Q385 431 385 353Z"/><path id="gBarlowCondensedMedium-498" d="M369 166Q369 87 322 39.5Q275 -8 198 -8Q127 -8 81.5 39.5Q36 87 36 166V188Q36 198 46 198H122Q132 198 132 188V170Q132 130 151 104Q170 78 198 78Q231 78 251.5 103.5Q272 129 272 170V280Q272 285 267 282Q238 253 194 253Q127 253 83.5 295.5Q40 338 32 407Q26 440 26 485Q26 523 29 554Q35 628 79 668Q123 708 197 708Q266 708 309 671Q352 634 362 562Q368 532 368 492ZM272 479Q272 518 268 551Q254 625 198 625Q169 625 150.5 605Q132 585 126 546Q123 510 123 479Q123 442 129 401Q143 336 198 336Q253 336 267 404Q272 437 272 479Z"/><path id="gBarlowCondensedMedium-494" d="M388 215Q388 177 383 139Q376 68 332 30Q288 -8 216 -8Q146 -8 103 29Q60 66 49 139L46 169Q46 179 56 179H132Q142 179 142 169L145 147Q158 75 216 75Q244 75 262 93Q280 111 286 145Q292 175 292 215Q292 257 284 289Q277 319 259.5 335Q242 351 216 351Q157 351 143 294Q140 285 132 285H55Q45 285 45 295V690Q45 700 55 700H364Q374 700 374 690V627Q374 617 364 617H145Q141 617 141 613V393Q141 391 142.5 390.5Q144 390 146 392Q162 412 187 423.5Q212 435 243 435Q300 435 335.5 399.5Q371 364 380 299Q388 261 388 215Z"/><path id="gSpecialElite-56" d="M984 306Q984 293 979.5 280.5Q975 268 969 255.5Q963 243 957.5 231Q952 219 950 206Q945 179 929.5 157.5Q914 136 894 117Q874 98 852 80.5Q830 63 813 45Q798 30 781 30Q771 30 762 32Q753 34 743 34Q729 34 720.5 29Q712 24 704.5 18.5Q697 13 686.5 8Q676 3 658 3Q645 3 633 -4Q621 -11 609 -11Q592 -11 569.5 -1Q547 9 520 9Q503 9 486 7.5Q469 6 452 6Q437 6 422.5 10.5Q408 15 394.5 20.5Q381 26 367 30.5Q353 35 338 35Q308 35 287 20Q266 5 249.5 -13.5Q233 -32 216.5 -47Q200 -62 179 -62Q160 -62 153.5 -55.5Q147 -49 145.5 -40Q144 -31 143 -20.5Q142 -10 134 -2Q119 14 114 27.5Q109 41 109 63Q109 111 117.5 156.5Q126 202 126 250Q126 267 122 283Q118 299 112.5 312Q107 325 103 334Q99 343 99 347Q99 356 104 366Q109 376 115.5 384.5Q122 393 129.5 398.5Q137 404 142 404Q152 404 159.5 399Q167 394 174.5 388.5Q182 383 189.5 378Q197 373 208 373Q210 373 211 373.5Q212 374 214 374Q228 351 236 324.5Q244 298 252.5 272.5Q261 247 273.5 223.5Q286 200 309 182Q315 177 323 171Q331 165 339.5 159Q348 153 356.5 149Q365 145 372 145Q383 145 393.5 147Q404 149 415 149Q430 149 430 139Q430 137 428 131H440H447Q485 131 523 140Q561 149 600 149Q618 149 636.5 145.5Q655 142 670 131Q689 140 702 154Q715 168 728 181.5Q741 195 757 205.5Q773 216 798 217Q803 223 803.5 231Q804 239 804 246.5Q804 254 805.5 261Q807 268 813 274Q823 283 828.5 292.5Q834 302 834 316Q834 343 819 366.5Q804 390 780.5 409.5Q757 429 726.5 444.5Q696 460 664.5 471Q633 482 604 487.5Q575 493 553 493Q528 493 503.5 488.5Q479 484 456 473Q456 495 446 502Q436 509 422 512Q408 515 393.5 520.5Q379 526 371 545Q354 523 328.5 513Q303 503 277 503Q251 503 229 513Q207 523 189.5 540Q172 557 161.5 579Q151 601 150 626Q149 643 143 656Q137 669 130 681Q123 693 117.5 706Q112 719 112 737Q112 782 116.5 807.5Q121 833 128 846.5Q135 860 143.5 865.5Q152 871 161 876.5Q170 882 178 892Q186 902 191 924Q194 939 200 944Q206 949 221 951Q234 953 238 957Q242 961 243.5 966Q245 971 247 976.5Q249 982 257 987Q278 1001 298.5 1004.5Q319 1008 341 1008Q354 1008 366 1007.5Q378 1007 392 1007Q434 1007 474 1011Q514 1015 556 1015Q588 1015 614.5 1008.5Q641 1002 661 994Q681 986 695.5 979.5Q710 973 719 973Q736 973 751.5 979.5Q767 986 784 987Q792 980 802.5 974.5Q813 969 824 969Q832 969 836 974Q840 979 841 987Q855 983 868 973Q881 963 891.5 949.5Q902 936 908 920.5Q914 905 914 891Q914 854 908.5 817.5Q903 781 903 744Q903 706 913 673Q899 662 882.5 653.5Q866 645 855 630L854 631Q847 637 836.5 646.5Q826 656 814.5 665Q803 674 792 680.5Q781 687 772 687H770Q765 690 761.5 694Q758 698 758 704Q758 714 764 722Q770 730 770 740Q770 743 761 754Q752 765 740.5 776.5Q729 788 718 797.5Q707 807 702 808Q692 810 681 815Q670 820 659 825Q648 830 638.5 834Q629 838 623 838Q610 838 597 834.5Q584 831 570 830H571L526 835Q493 839 461 851Q429 863 395 863Q365 863 351 849Q337 835 328 817.5Q319 800 310 786Q301 772 280 772Q274 772 271 773Q281 741 289.5 719Q298 697 310 679.5Q322 662 340 646.5Q358 631 386 613Q389 611 394.5 606Q400 601 406 595.5Q412 590 417.5 586Q423 582 426 582Q443 582 458.5 590Q474 598 491 598Q503 598 513.5 592.5Q524 587 536 587Q548 587 559 591.5Q570 596 583 596Q588 596 593.5 595Q599 594 604 593Q634 585 664 585.5Q694 586 725 585Q747 585 769.5 577Q792 569 813 556.5Q834 544 852 528Q870 512 883 495Q893 481 905 470Q917 459 928.5 447.5Q940 436 949 423Q958 410 962 393Q967 373 975.5 349Q984 325 984 306Z"/><path id="gSpecialElite-38" d="M1148 175Q1148 158 1142 143Q1136 128 1131 112Q1127 98 1125.5 89Q1124 80 1121 73.5Q1118 67 1111.5 61.5Q1105 56 1091 49Q1061 33 1027.5 16.5Q994 0 960 0Q931 0 905.5 13.5Q880 27 858.5 43.5Q837 60 819.5 74Q802 88 790 88Q777 88 767.5 81Q758 74 748.5 66Q739 58 727.5 51Q716 44 699 44Q685 44 670 39Q655 34 640 27.5Q625 21 609.5 14.5Q594 8 581 4Q536 -8 490.5 -10Q445 -12 399 -12Q387 -12 362 -11.5Q337 -11 311.5 -6.5Q286 -2 266.5 8Q247 18 247 36Q247 40 248 43Q241 35 232 30Q223 25 212 25Q196 25 173 47Q150 69 129 98Q108 127 93 155.5Q78 184 78 198Q78 209 84.5 218Q91 227 91 238Q91 252 87.5 264.5Q84 277 84 291Q84 309 91 329.5Q98 350 108 370.5Q118 391 129 410.5Q140 430 149 447Q159 467 177 479Q195 491 215 500Q235 509 255 518Q275 527 290 542Q305 525 329 525Q354 525 378 532.5Q402 540 427 540Q447 540 465.5 536Q484 532 504 532Q526 532 536.5 537.5Q547 543 563 557Q579 571 603.5 578.5Q628 586 654.5 590.5Q681 595 707.5 600Q734 605 755 614.5Q776 624 789 640.5Q802 657 802 686Q802 718 783.5 753.5Q765 789 736 818.5Q707 848 672 867Q637 886 605 886Q601 886 597 885Q593 884 590 884Q566 880 536 878.5Q506 877 480 869.5Q454 862 436 844.5Q418 827 418 793Q418 773 421.5 753.5Q425 734 425 714Q425 684 410.5 664Q396 644 373.5 632Q351 620 324 615.5Q297 611 272 611Q242 611 220 619Q198 627 184 656Q173 677 160.5 701.5Q148 726 148 751Q148 778 157.5 801.5Q167 825 179 847.5Q191 870 202.5 892.5Q214 915 219 941Q226 945 238.5 949Q251 953 265.5 957Q280 961 293.5 964.5Q307 968 316 971Q340 978 362.5 987.5Q385 997 408.5 1005Q432 1013 455.5 1019Q479 1025 504 1026L535 1027Q578 1027 623 1019.5Q668 1012 711 996Q754 980 792.5 956.5Q831 933 861 901Q883 877 897.5 844.5Q912 812 920.5 776Q929 740 932.5 703.5Q936 667 936 636Q936 594 933.5 553.5Q931 513 931 471Q931 431 935.5 391.5Q940 352 946 312.5Q952 273 956.5 233.5Q961 194 961 155Q963 131 967.5 125.5Q972 120 977 120Q999 120 1012.5 133.5Q1026 147 1037 163.5Q1048 180 1061 194Q1074 208 1094 208Q1103 208 1112.5 207Q1122 206 1130 202.5Q1138 199 1143 192.5Q1148 186 1148 175ZM819 424Q819 430 818.5 445Q818 460 816 475.5Q814 491 809.5 503Q805 515 796 515Q794 515 791 513.5Q788 512 786 512Q748 491 721 477.5Q694 464 667.5 455.5Q641 447 611 444Q581 441 536 441Q530 441 503 436Q476 431 444 424.5Q412 418 384 411.5Q356 405 349 403Q336 398 330.5 393Q325 388 322 382Q319 376 316 369.5Q313 363 305 356Q295 348 283.5 343Q272 338 262 328Q247 313 234 288.5Q221 264 221 242Q221 215 235 194Q249 173 272 158Q295 143 324 132Q353 121 382.5 115Q412 109 439.5 106Q467 103 487 103Q511 103 544 106.5Q577 110 610 117.5Q643 125 672 138Q701 151 718 171Q725 179 728 185.5Q731 192 734.5 198.5Q738 205 742.5 212Q747 219 757 227Q780 246 792.5 269Q805 292 811 317Q817 342 818 369Q819 396 819 424Z"/><path id="gSpecialElite-44" d="M990 -136Q990 -107 975 -91Q960 -75 937.5 -66Q915 -57 889.5 -52.5Q864 -48 843 -42L842 -41Q787 -25 732 -12.5Q677 0 620 0Q618 0 613 1.5Q608 3 591 14Q583 14 577 10Q571 6 565.5 1Q560 -4 554 -8Q548 -12 541 -12Q530 -12 520 -7.5Q510 -3 499 -3Q477 -3 456 -9.5Q435 -16 414.5 -23.5Q394 -31 373 -37.5Q352 -44 330 -44Q317 -44 299.5 -56Q282 -68 266 -85Q250 -102 239 -120.5Q228 -139 228 -152Q228 -183 236.5 -209Q245 -235 262 -254Q279 -273 303.5 -284Q328 -295 361 -295Q372 -295 381.5 -296.5Q391 -298 402 -306Q437 -333 479.5 -337.5Q522 -342 564 -342Q590 -342 613.5 -331Q637 -320 662 -314Q687 -309 712.5 -309.5Q738 -310 762 -299Q779 -291 789.5 -283.5Q800 -276 820 -276Q837 -276 852.5 -279Q868 -282 885 -282Q902 -282 916.5 -274.5Q931 -267 941 -254.5Q951 -242 956.5 -226.5Q962 -211 962 -195L961 -185Q980 -185 985 -168Q990 -151 990 -136ZM1150 -169Q1150 -201 1128.5 -236.5Q1107 -272 1077.5 -302Q1048 -332 1019 -351.5Q990 -371 975 -371Q949 -371 924.5 -378.5Q900 -386 877 -397Q855 -408 811.5 -419Q768 -430 719 -438.5Q670 -447 625 -452.5Q580 -458 555 -458Q526 -458 493.5 -456Q461 -454 428 -449.5Q395 -445 363.5 -437.5Q332 -430 305 -419Q291 -413 282.5 -407Q274 -401 266 -396Q258 -391 248 -388Q238 -385 220 -385Q199 -385 186 -377.5Q173 -370 164.5 -358Q156 -346 148.5 -331.5Q141 -317 131 -303Q109 -274 98 -247.5Q87 -221 87 -184Q87 -133 108 -85.5Q129 -38 163 0Q163 30 155.5 59Q148 88 139.5 117Q131 146 123.5 175Q116 204 116 234Q116 254 121.5 266.5Q127 279 133 287.5Q139 296 144.5 303.5Q150 311 150 321Q150 324 164.5 338Q179 352 196.5 370Q214 388 228.5 408Q243 428 243 443Q243 456 232.5 467.5Q222 479 210 490.5Q198 502 187.5 514.5Q177 527 177 542Q177 564 180.5 586.5Q184 609 188.5 630.5Q193 652 196.5 674Q200 696 200 719Q200 724 198 727.5Q196 731 196 736Q196 747 201.5 755.5Q207 764 214 770.5Q221 777 226.5 783Q232 789 232 795Q232 803 226 810.5Q220 818 220 832V836V841Q236 852 246.5 867Q257 882 271 894Q291 911 318.5 927.5Q346 944 369 956Q377 955 380 948Q383 941 391 941Q397 941 410 947.5Q423 954 440.5 962.5Q458 971 477.5 977.5Q497 984 516 984Q532 984 548 981.5Q564 979 580 977Q612 973 637 972Q662 971 683.5 965Q705 959 723.5 944Q742 929 762 898Q772 907 785 914Q798 921 810 928.5Q822 936 832 945.5Q842 955 847 969Q857 964 867 964Q875 964 884 970Q893 976 905 982.5Q917 989 933 995Q949 1001 971 1001Q1005 1001 1037.5 994Q1070 987 1104 984Q1106 961 1113 940.5Q1120 920 1128 899Q1136 878 1142.5 857Q1149 836 1149 814Q1149 799 1133.5 780Q1118 761 1095.5 744.5Q1073 728 1047.5 717Q1022 706 1002 706Q999 706 995.5 708Q992 710 992 714Q992 724 998.5 731Q1005 738 1005 748Q992 755 989.5 756Q987 757 986 757Q969 757 959 748.5Q949 740 944 725.5Q939 711 937 693.5Q935 676 935 658Q935 638 936 620.5Q937 603 937 591Q937 566 934 546.5Q931 527 912 509Q894 492 884 471.5Q874 451 864 429Q854 407 841.5 385Q829 363 806 345Q794 333 786.5 327Q779 321 775.5 318Q772 315 770.5 314.5Q769 314 768 314Q741 314 716 306.5Q691 299 666 290.5Q641 282 616 274.5Q591 267 564 267Q523 267 483.5 276.5Q444 286 402 286Q382 286 357 278Q332 270 310.5 255.5Q289 241 274 221.5Q259 202 259 179Q259 165 265 150Q271 135 281 123Q291 111 304.5 103.5Q318 96 333 96Q350 96 364.5 104Q379 112 396 112Q408 112 415.5 105.5Q423 99 432 98Q432 104 436.5 109Q441 114 448 114Q454 114 460 107Q466 100 474 98Q479 106 488 109.5Q497 113 506 113Q518 113 528.5 109Q539 105 549 99.5Q559 94 568 90Q577 86 586 86Q594 86 600 90.5Q606 95 613 101Q620 107 629 111.5Q638 116 652 116Q663 116 672.5 114.5Q682 113 693 113Q708 113 721.5 120.5Q735 128 750 128Q758 128 765.5 124Q773 120 784 115Q795 110 810.5 106Q826 102 849 102Q865 102 881 97Q897 92 912 85Q927 78 942.5 71Q958 64 973 60Q991 55 1000 50Q1009 45 1014.5 39Q1020 33 1026 25Q1032 17 1045 7Q1059 -5 1073 -11.5Q1087 -18 1099 -25Q1111 -32 1119.5 -43Q1128 -54 1133 -76Q1138 -99 1144 -122Q1150 -145 1150 -169ZM891 834Q891 850 874 860Q857 870 843 870Q835 870 828 866.5Q821 863 819 855Q827 853 833 848Q839 843 844.5 837.5Q850 832 856.5 828Q863 824 872 824Q881 824 890 827ZM791 624Q791 646 783.5 674Q776 702 762 727.5Q748 753 729 773Q710 793 688 800L572 841Q563 841 558 839Q553 837 548 834.5Q543 832 538 830Q533 828 524 828Q511 828 500 833Q489 838 477 838Q466 838 459 831Q452 824 445 817Q438 810 432.5 807Q427 804 421.5 802Q416 800 410.5 797.5Q405 795 399 791Q391 786 380 762Q369 738 359 710Q349 682 342 656Q335 630 335 621Q335 617 341 603.5Q347 590 356.5 571Q366 552 377.5 531Q389 510 399.5 491Q410 472 418.5 457.5Q427 443 431 439Q444 422 459.5 416.5Q475 411 492 411Q506 411 521.5 413Q537 415 552 415Q564 415 575 412.5Q586 410 598 410Q631 410 665 432Q699 454 727 486Q755 518 773 555.5Q791 593 791 624Z"/><path id="gSpecialElite-55" d="M1158 730Q1158 710 1150 696Q1142 682 1132.5 669.5Q1123 657 1113.5 644Q1104 631 1101 613Q1092 617 1082.5 618Q1073 619 1063 619Q1039 619 1015.5 615.5Q992 612 969 612Q942 612 924.5 628.5Q907 645 896.5 669Q886 693 882 720.5Q878 748 878 770Q878 798 887 827Q879 830 873 830Q860 830 854.5 822Q849 814 839 814Q830 814 823 820.5Q816 827 806 827Q791 827 768.5 817.5Q746 808 725 793Q704 778 688.5 760.5Q673 743 673 727Q652 725 633.5 715.5Q615 706 598 695Q585 687 576 670Q567 653 559.5 633.5Q552 614 544.5 594Q537 574 527 561Q510 539 497.5 516.5Q485 494 485 466Q485 431 496 395Q507 359 507 322Q507 298 503.5 274Q500 250 500 227Q500 199 510 182Q520 165 537 155.5Q554 146 576 143Q598 140 621 140Q646 140 669.5 141.5Q693 143 713 143Q720 135 721 128Q722 121 720.5 113.5Q719 106 716.5 98.5Q714 91 714 81Q714 77 716 71Q731 71 742 78Q753 85 758 100Q765 98 770.5 94Q776 90 776 82Q776 76 773 70.5Q770 65 766 60Q762 55 759 49.5Q756 44 756 37Q756 33 757 28.5Q758 24 760 21Q755 13 746 10Q737 7 728 7Q712 7 701.5 12Q691 17 682.5 23Q674 29 667 34Q660 39 650 39Q646 39 638 37Q630 35 622 32Q614 29 608 24.5Q602 20 602 16Q602 8 607.5 2Q613 -4 613 -12Q613 -19 608 -23Q603 -27 596 -28.5Q589 -30 581.5 -30.5Q574 -31 569 -31Q530 -31 491.5 -22.5Q453 -14 414 -14Q396 -14 378 -22Q360 -30 340 -30Q329 -30 323.5 -25.5Q318 -21 314 -15Q310 -9 305 -4.5Q300 0 290 0Q271 0 252.5 -4Q234 -8 215.5 -12.5Q197 -17 178.5 -20.5Q160 -24 141 -24Q131 -24 117 -21.5Q103 -19 90 -13Q77 -7 68 2Q59 11 59 24Q59 32 68.5 45Q78 58 90 70.5Q102 83 114 92Q126 101 132 101Q148 101 163.5 100Q179 99 196 99Q223 99 250.5 107.5Q278 116 300.5 132Q323 148 337 172Q351 196 351 226Q351 239 349 251.5Q347 264 347 277Q347 303 353 329Q359 355 359 381Q359 416 351.5 452.5Q344 489 344 526Q344 559 345.5 591.5Q347 624 347 657Q347 672 346 701Q345 730 339.5 759Q334 788 322.5 810Q311 832 291 832Q269 832 247 827Q225 822 202 822Q185 822 162 824.5Q139 827 118 834.5Q97 842 82 856Q67 870 67 893Q67 918 74 933.5Q81 949 92.5 957Q104 965 119.5 968Q135 971 153 971Q169 971 186 970Q203 969 219 969Q251 969 282.5 972.5Q314 976 346 976Q368 976 390 974Q412 972 433 965Q452 959 461 942.5Q470 926 477.5 909Q485 892 495 878.5Q505 865 527 865Q537 865 545.5 870.5Q554 876 562 883Q570 890 578 896Q586 902 597 904Q619 907 637.5 918Q656 929 674 940Q692 951 710.5 960Q729 969 751 969Q764 969 783.5 972Q803 975 822.5 980.5Q842 986 859.5 994Q877 1002 887 1012Q914 1010 950.5 999Q987 988 1020.5 969.5Q1054 951 1079 926Q1104 901 1108 870Q1111 851 1119 834Q1127 817 1135.5 800.5Q1144 784 1151 766.5Q1158 749 1158 730Z"/><path id="gSpecialElite-84" d="M1172 639Q1164 619 1149 606Q1134 593 1123 578Q1111 576 1091.5 574.5Q1072 573 1060 561Q1034 570 1004.5 572.5Q975 575 945 577.5Q915 580 886.5 585.5Q858 591 834 606Q807 591 776 591Q757 591 739 595.5Q721 600 705 606Q681 604 658.5 603Q636 602 615 602Q588 602 563 603Q538 604 513 604Q475 604 437.5 601Q400 598 355 588Q352 589 352 594Q352 597 353 600.5Q354 604 354 607Q354 617 334 617Q322 617 318.5 609Q315 601 310 594Q293 597 279 597Q264 597 248.5 594.5Q233 592 214 588Q188 598 172 617Q156 636 146.5 660Q137 684 133.5 710.5Q130 737 130 763V780Q138 786 149 789Q160 792 171.5 794.5Q183 797 193.5 801Q204 805 210 813Q225 797 247 792.5Q269 788 293.5 786.5Q318 785 343 782.5Q368 780 390 768Q412 779 433 782Q454 785 474 785Q491 785 507 784Q523 783 539 783Q558 783 576 786Q586 777 601.5 773.5Q617 770 636 770Q662 770 689.5 775Q717 780 738 786Q752 777 767 773.5Q782 770 797 770Q828 770 860.5 778.5Q893 787 927 787Q959 787 988 774Q993 787 1001.5 795Q1010 803 1021 809Q1040 800 1062.5 793.5Q1085 787 1105 778.5Q1125 770 1140.5 757.5Q1156 745 1162 723Q1159 713 1154 713Q1149 713 1144 716Q1139 719 1131 719H1127Q1127 711 1132 708.5Q1137 706 1143.5 705Q1150 704 1155.5 703Q1161 702 1162 696Q1161 692 1161 688.5Q1161 685 1161 682Q1161 656 1172 639ZM259 758Q257 758 256 758.5Q255 759 253 759Q242 759 234 749Q226 739 226 729Q226 723 230 718.5Q234 714 243 713Q250 714 252 719.5Q254 725 254.5 731.5Q255 738 255.5 745.5Q256 753 259 758Z"/><path id="gSpecialElite-41" d="M1222 43Q1222 30 1215.5 17Q1209 4 1194 4Q1183 4 1174 6.5Q1165 9 1154 9Q1138 9 1137.5 3Q1137 -3 1135 -10.5Q1133 -18 1120.5 -24Q1108 -30 1068 -30Q1045 -30 1022.5 -26Q1000 -22 977 -22Q960 -22 940 -27Q932 -17 922.5 -12Q913 -7 904.5 -1.5Q896 4 890 12Q884 20 884 36Q884 47 870 47Q865 47 860.5 46Q856 45 851 45Q846 45 842.5 47.5Q839 50 839 55Q839 57 840 58Q819 57 808 44Q797 31 784 17Q775 8 765 3.5Q755 -1 744.5 -4.5Q734 -8 722.5 -13Q711 -18 700 -28Q691 -37 670 -41.5Q649 -46 625.5 -48.5Q602 -51 579.5 -51.5Q557 -52 544 -52Q514 -52 495.5 -47Q477 -42 462.5 -34.5Q448 -27 432 -18.5Q416 -10 391 -2Q364 6 326 28Q288 50 253.5 79Q219 108 195 141.5Q171 175 171 206Q171 220 164.5 234.5Q158 249 148.5 262.5Q139 276 129 289.5Q119 303 113 315Q94 353 88.5 395Q83 437 83 479Q83 518 89 553.5Q95 589 104 623.5Q113 658 122.5 692Q132 726 140 763Q145 789 154 802.5Q163 816 174.5 826Q186 836 199.5 845Q213 854 227 871Q233 878 234.5 883.5Q236 889 237.5 892.5Q239 896 243.5 897.5Q248 899 261 899Q269 899 273.5 904Q278 909 282 916Q286 923 289.5 930.5Q293 938 299 942Q305 946 314 948Q323 950 333 951Q343 952 352.5 953Q362 954 370 957Q391 966 404.5 973Q418 980 430.5 985.5Q443 991 459 994Q475 997 501 997Q535 997 568.5 988.5Q602 980 635 970Q668 960 701 951.5Q734 943 769 943Q797 943 813.5 955Q830 967 838.5 986Q847 1005 849.5 1028Q852 1051 852 1073Q852 1112 847 1150.5Q842 1189 840 1227L831 1223Q821 1223 813 1228.5Q805 1234 798 1240.5Q791 1247 783 1252.5Q775 1258 765 1258Q754 1258 751 1252.5Q748 1247 741 1242Q730 1241 718.5 1240.5Q707 1240 696 1240H652Q638 1240 620.5 1248.5Q603 1257 587 1270.5Q571 1284 560.5 1299.5Q550 1315 550 1330Q550 1343 558.5 1357.5Q567 1372 579.5 1384Q592 1396 607 1403.5Q622 1411 636 1411Q649 1411 660 1404.5Q671 1398 684 1398Q706 1398 726.5 1405Q747 1412 770 1412Q793 1412 813.5 1404.5Q834 1397 857 1397Q874 1397 891.5 1398Q909 1399 926 1399Q944 1399 962.5 1396Q981 1393 997 1384V1378Q997 1364 1000.5 1350.5Q1004 1337 1008.5 1323.5Q1013 1310 1016.5 1297Q1020 1284 1020 1270Q1020 1252 1011.5 1235.5Q1003 1219 1003 1200Q1003 1165 1011 1130.5Q1019 1096 1019 1061Q1019 973 1018 885.5Q1017 798 1017 709Q1017 619 1011 530.5Q1005 442 1005 352Q1005 319 1008 277.5Q1011 236 1024 199.5Q1037 163 1062.5 138Q1088 113 1133 113Q1142 113 1150.5 114.5Q1159 116 1168 116Q1181 116 1191 109Q1201 102 1208 91Q1215 80 1218.5 67Q1222 54 1222 43ZM859 539Q859 576 852.5 618Q846 660 829.5 696.5Q813 733 784.5 758Q756 783 713 785Q704 786 691.5 793Q679 800 666 808Q653 816 640.5 822.5Q628 829 618 829Q609 829 601 825.5Q593 822 585 817.5Q577 813 569 809.5Q561 806 551 806Q534 806 518.5 808Q503 810 486 810Q436 810 395.5 780Q355 750 326 705.5Q297 661 281 609.5Q265 558 265 515Q265 497 267.5 479Q270 461 270 443Q270 431 263.5 423.5Q257 416 248.5 408.5Q240 401 233.5 392.5Q227 384 227 372H235Q261 372 275.5 362.5Q290 353 297.5 337.5Q305 322 309.5 302Q314 282 320 261.5Q326 241 337.5 222Q349 203 371 188Q387 177 406.5 164Q426 151 447.5 140Q469 129 490.5 121.5Q512 114 532 114Q564 114 595 123.5Q626 133 658 133Q670 133 684 130Q707 166 737.5 198.5Q768 231 812 244L811 266Q811 299 818.5 330.5Q826 362 835 395Q844 428 851.5 463Q859 498 859 539Z"/><path id="gSpecialElite-49" d="M1101 52Q1101 17 1077.5 -3.5Q1054 -24 1021 -34.5Q988 -45 952.5 -48Q917 -51 892 -51Q859 -51 837.5 -45Q816 -39 800 -32.5Q784 -26 772 -20Q760 -14 747 -14Q730 -14 713.5 -20Q697 -26 680 -26Q668 -26 660.5 -22Q653 -18 648 -12.5Q643 -7 638.5 -3Q634 1 628 1Q621 1 617 -4.5Q613 -10 608 -17Q603 -24 593.5 -29.5Q584 -35 566 -35Q545 -35 525 -30.5Q505 -26 484 -26Q463 -26 442.5 -33.5Q422 -41 404 -41Q396 -41 392 -35.5Q388 -30 383 -30Q366 -30 347.5 -38Q329 -46 310 -46Q300 -46 290.5 -43.5Q281 -41 271 -41Q254 -41 237 -49Q220 -57 195 -57Q186 -57 155.5 -54.5Q125 -52 93 -47Q61 -42 35.5 -34.5Q10 -27 10 -18Q10 8 19.5 34Q29 60 29 84V86Q16 86 14 100Q16 104 20.5 106.5Q25 109 30 110.5Q35 112 39 115Q43 118 43 124V128Q83 124 121.5 123Q160 122 202 122Q241 122 288.5 124.5Q336 127 376.5 139Q417 151 444.5 175.5Q472 200 472 244V251V267Q467 377 461.5 483.5Q456 590 456 700Q456 729 451.5 756.5Q447 784 447 812Q447 847 459.5 882Q472 917 499 941Q498 947 494 949.5Q490 952 484 953Q478 954 472.5 955Q467 956 463 958Q457 961 455 972Q453 983 451.5 996Q450 1009 448.5 1021.5Q447 1034 442 1041Q445 1070 452 1098Q459 1126 459 1155Q459 1176 453.5 1188Q448 1200 441 1208Q434 1216 428.5 1222.5Q423 1229 423 1239Q423 1247 428 1254L420 1255Q410 1255 405 1250Q400 1245 395.5 1239Q391 1233 386 1228Q381 1223 372 1223Q365 1223 356 1226Q339 1221 324 1221Q289 1221 254.5 1230.5Q220 1240 185 1240Q166 1240 148 1238.5Q130 1237 112 1237Q86 1237 60 1243Q34 1249 14 1269V1281Q14 1334 49.5 1361Q85 1388 136 1388Q171 1388 205 1379Q239 1370 274 1370Q293 1370 314 1374Q335 1378 357 1383Q379 1388 401.5 1392Q424 1396 446 1396Q480 1396 510 1381.5Q540 1367 570 1354L569 1346Q569 1337 573.5 1329.5Q578 1322 584 1314.5Q590 1307 594.5 1299.5Q599 1292 599 1283Q599 1274 596.5 1265.5Q594 1257 594 1248Q594 1226 602.5 1206Q611 1186 611 1163Q611 1139 605.5 1116Q600 1093 600 1069Q600 1040 607 1011Q614 982 614 953Q614 929 606.5 906Q599 883 599 860Q599 843 603.5 826.5Q608 810 614 794Q620 778 624.5 761.5Q629 745 629 727V707Q629 691 626.5 676.5Q624 662 613 649Q618 630 623.5 608Q629 586 629 566Q629 556 627.5 544.5Q626 533 622.5 521.5Q619 510 613 500.5Q607 491 599 485Q612 447 616 408Q620 369 622 330Q623 318 626 299Q629 280 632 261.5Q635 243 637.5 227.5Q640 212 640 206Q640 189 634 173Q628 157 628 140Q628 127 634 112.5Q640 98 656 98Q668 98 676.5 103.5Q685 109 695 115.5Q705 122 718.5 127.5Q732 133 755 133Q781 133 804 126Q827 119 853 119Q872 119 891.5 122.5Q911 126 929.5 130.5Q948 135 967 139Q986 143 1006 143Q1046 143 1073.5 120Q1101 97 1101 52ZM527 1297Q523 1301 517.5 1305Q512 1309 505 1309Q500 1309 496.5 1304.5Q493 1300 493 1295L498 1283Q502 1281 504 1281Q512 1281 517.5 1286.5Q523 1292 527 1297ZM587 1019Q587 1027 582.5 1035.5Q578 1044 568 1044Q565 1044 561.5 1043Q558 1042 556 1041V998Q564 994 568 994Q578 994 582.5 1002.5Q587 1011 587 1019Z"/><path id="gSpecialElite-60" d="M1379 919Q1379 887 1358.5 869Q1338 851 1310 838Q1282 825 1252.5 812.5Q1223 800 1206 779Q1177 744 1164.5 697Q1152 650 1145.5 599Q1139 548 1134.5 497Q1130 446 1117 403Q1112 388 1112 368.5Q1112 349 1110.5 330.5Q1109 312 1102 296.5Q1095 281 1077 274Q1072 272 1065 269Q1058 266 1058 260Q1058 253 1064 249Q1070 245 1076.5 241.5Q1083 238 1089 232.5Q1095 227 1095 217Q1095 197 1089.5 177Q1084 157 1077.5 137Q1071 117 1065.5 95.5Q1060 74 1060 50Q1060 35 1056.5 28Q1053 21 1047 17Q1041 13 1032 10.5Q1023 8 1012 1Q1002 -5 991.5 -10Q981 -15 968 -15Q957 -15 946 -10Q935 -5 923.5 1.5Q912 8 900.5 14.5Q889 21 878 24Q870 55 862.5 75Q855 95 848.5 110Q842 125 837 138Q832 151 828 168.5Q824 186 822 210Q820 234 820 272Q820 289 817 305.5Q814 322 805 336Q788 362 778.5 390Q769 418 764 446.5Q759 475 756.5 504.5Q754 534 751 564Q750 571 749 584Q748 597 744.5 610Q741 623 734.5 632Q728 641 717 641Q706 641 693.5 631.5Q681 622 665 610.5Q649 599 628 589.5Q607 580 579 580Q589 568 599 564Q609 560 623 558Q637 555 643.5 550Q650 545 653.5 538Q657 531 659.5 522Q662 513 668 503Q678 486 678 466Q678 438 666 410.5Q654 383 639 360Q629 344 625.5 326Q622 308 620.5 290Q619 272 617 254Q615 236 607 219Q604 212 598 199.5Q592 187 592 179Q592 176 594.5 171Q597 166 600.5 159.5Q604 153 606.5 145.5Q609 138 609 132Q609 122 604 109.5Q599 97 592.5 83.5Q586 70 579.5 57Q573 44 570 33Q564 14 553.5 3.5Q543 -7 528.5 -12Q514 -17 497.5 -18Q481 -19 465 -19Q436 -19 420 -16.5Q404 -14 395.5 -5.5Q387 3 382.5 19Q378 35 372 61Q366 85 359.5 109Q353 133 353 158Q353 185 365 209Q357 222 351 239Q345 256 336 266Q326 277 315 287.5Q304 298 294 309Q295 320 295 329.5Q295 339 295 350Q295 431 278 516.5Q261 602 237 680Q226 712 213 743Q200 774 194 808Q183 808 173 808.5Q163 809 152 809Q143 809 137 804Q131 799 124.5 793Q118 787 110.5 782Q103 777 93 777Q78 777 63.5 787Q49 797 37.5 811.5Q26 826 19 842.5Q12 859 12 873Q12 892 22.5 911Q33 930 49.5 945.5Q66 961 86 970.5Q106 980 124 980Q147 980 168 971Q189 962 212 962Q230 962 248 964.5Q266 967 285 967Q312 967 339 965Q366 963 393 963Q407 963 420 956.5Q433 950 445 941.5Q457 933 469 923.5Q481 914 493 908Q492 886 482.5 874.5Q473 863 458.5 855.5Q444 848 427.5 841Q411 834 397.5 821.5Q384 809 374.5 787.5Q365 766 365 730Q365 686 386 652Q391 643 391 629Q391 618 389 606.5Q387 595 387 585Q387 573 393 566Q408 548 411.5 519.5Q415 491 417.5 461Q420 431 425.5 404.5Q431 378 450 366H457Q484 366 496.5 386Q509 406 514 433.5Q519 461 519.5 490Q520 519 522 537Q538 551 547 578.5Q556 606 561 637Q566 668 567.5 698.5Q569 729 569 749Q569 780 561.5 799.5Q554 819 544.5 833Q535 847 527.5 859.5Q520 872 520 890Q520 911 543.5 926.5Q567 942 600 951.5Q633 961 667 965.5Q701 970 722 970Q737 970 742.5 969.5Q748 969 750 968Q750 976 769 976Q784 976 806 972Q828 968 850 963.5Q872 959 891 955Q910 951 919 951Q948 951 978.5 959Q1009 967 1035 979Q1075 997 1115.5 1003.5Q1156 1010 1199 1010Q1222 1010 1253 1005Q1284 1000 1312.5 989.5Q1341 979 1360.5 964Q1380 949 1380 930Q1380 926 1379.5 923Q1379 920 1379 919ZM817 888Q817 897 808.5 901.5Q800 906 793 908Q792 897 786.5 890.5Q781 884 779 875Q781 873 781 868Q781 866 786.5 866.5Q792 867 799 869.5Q806 872 811.5 877Q817 882 817 888ZM1049 779Q1036 795 1015 810.5Q994 826 971.5 838Q949 850 929 857Q909 864 897 864Q895 864 890 858.5Q885 853 878.5 845.5Q872 838 864 831.5Q856 825 850 822Q850 773 848.5 724.5Q847 676 847 627Q847 602 851.5 580.5Q856 559 873 539Q881 529 888.5 507.5Q896 486 904.5 464Q913 442 924 425.5Q935 409 949 409Q967 409 979.5 432Q992 455 1001 491Q1010 527 1016 571Q1022 615 1027 656Q1032 697 1037 730.5Q1042 764 1049 779Z"/><path id="gSpecialElite-11" d="M1102 790Q1102 752 1101 713.5Q1100 675 1094 637.5Q1088 600 1075 564.5Q1062 529 1038 498Q1025 481 1019 460Q1013 439 1011 419Q999 419 988.5 423.5Q978 428 968 434Q958 440 948 444.5Q938 449 926 449Q910 449 910 434Q910 429 913 421Q916 413 920.5 406Q925 399 931 394Q937 389 943 389Q952 392 954 405Q959 402 963.5 397Q968 392 968 387Q968 378 957 370Q946 362 933.5 354.5Q921 347 910 339.5Q899 332 899 323Q899 316 909 312.5Q919 309 930.5 306Q942 303 952 299.5Q962 296 962 288Q962 279 949.5 273Q937 267 931 264Q915 257 899.5 239.5Q884 222 870.5 203.5Q857 185 846 171Q835 157 829 157Q820 157 811 159Q802 161 793 161Q782 161 768.5 157Q755 153 755 139Q755 127 763.5 118Q772 109 783 105Q774 95 760 95Q753 95 746.5 96Q740 97 734 97Q722 97 713.5 91.5Q705 86 698 78.5Q691 71 684.5 62.5Q678 54 669 48Q668 47 655 43Q642 39 622.5 33Q603 27 581 20.5Q559 14 539.5 8.5Q520 3 506 -0.5Q492 -4 489 -4Q445 -4 400.5 12.5Q356 29 317 46Q289 58 270.5 73.5Q252 89 238 107Q224 125 212 146Q200 167 185 191L156 205V234Q148 247 142.5 254.5Q137 262 132.5 269Q128 276 126 285.5Q124 295 124 312Q124 325 127 342Q130 359 135.5 375.5Q141 392 150 406Q159 420 171 428Q194 443 223 459Q252 475 281 475Q300 475 314.5 466Q329 457 343.5 445Q358 433 374 421.5Q390 410 413 405V395V389Q413 369 405 353Q397 337 397 316Q397 309 398 305Q384 307 369.5 309Q355 311 341 311Q327 311 312.5 309Q298 307 284 305Q289 293 309 286.5Q329 280 356 276Q383 272 413 267.5Q443 263 468.5 254.5Q494 246 511 231.5Q528 217 528 192Q528 182 527 177Q541 189 572.5 207Q604 225 639.5 241.5Q675 258 708.5 269.5Q742 281 760 281Q771 281 777 277Q783 273 783 262Q795 262 801 272.5Q807 283 811 298Q815 313 819 331.5Q823 350 830 367.5Q837 385 849.5 399Q862 413 883 419Q878 432 878 445Q878 464 885 484Q892 504 901 524.5Q910 545 917 566.5Q924 588 924 611Q924 648 897 675Q887 670 860.5 660.5Q834 651 800 640Q766 629 728 617.5Q690 606 656 597Q622 588 595 582Q568 576 557 576Q541 576 526.5 579.5Q512 583 497 587Q482 591 465.5 594.5Q449 598 430 598Q410 598 402.5 603.5Q395 609 389.5 615Q384 621 374.5 626.5Q365 632 341 632Q330 632 312.5 647Q295 662 276 682Q257 702 240.5 721.5Q224 741 214 749Q210 752 204 755.5Q198 759 191 762Q184 765 178.5 768Q173 771 170 775Q164 783 163 796.5Q162 810 161 823.5Q160 837 156 847Q152 857 142 857Q140 857 139 856.5Q138 856 137 856Q132 856 130 860Q128 864 128 880Q128 895 123.5 912.5Q119 930 113.5 948Q108 966 103.5 984Q99 1002 99 1018Q99 1042 105.5 1064Q112 1086 112 1112Q112 1121 118 1139Q124 1157 133.5 1178.5Q143 1200 155 1223Q167 1246 179 1265.5Q191 1285 202.5 1298.5Q214 1312 223 1314Q226 1315 232 1316Q238 1317 244 1319.5Q250 1322 255 1325Q260 1328 260 1332Q260 1336 259.5 1339Q259 1342 259 1346Q259 1362 264.5 1368Q270 1374 278 1376.5Q286 1379 295 1380.5Q304 1382 311 1390Q323 1404 332.5 1412Q342 1420 350.5 1424.5Q359 1429 368 1430Q377 1431 389 1431H427Q433 1443 448.5 1450Q464 1457 483 1460Q502 1463 520 1463.5Q538 1464 550 1464Q574 1464 604 1458.5Q634 1453 664.5 1446Q695 1439 723.5 1433.5Q752 1428 774 1428Q786 1428 797 1431Q797 1407 800 1397.5Q803 1388 810 1383.5Q817 1379 828.5 1375.5Q840 1372 856 1361Q881 1344 901.5 1320.5Q922 1297 940 1274Q938 1269 934.5 1256Q931 1243 923.5 1228.5Q916 1214 905.5 1203Q895 1192 880 1192Q858 1192 839 1206.5Q820 1221 806 1236Q793 1250 774 1261.5Q755 1273 734 1282.5Q713 1292 692 1300.5Q671 1309 655 1317Q641 1335 621 1343.5Q601 1352 578 1352Q539 1352 501.5 1338.5Q464 1325 427 1317Q406 1298 398 1274Q390 1276 384 1276Q375 1276 360.5 1272Q346 1268 332.5 1260.5Q319 1253 309 1243.5Q299 1234 299 1224V1219V1215Q299 1198 289 1186.5Q279 1175 270 1160Q258 1141 259.5 1118Q261 1095 256 1075Q253 1062 243 1047.5Q233 1033 233 1020Q233 1005 236.5 990.5Q240 976 240 959Q240 950 247 926.5Q254 903 264.5 878.5Q275 854 286.5 835Q298 816 307 816Q313 816 315.5 821Q318 826 319.5 831.5Q321 837 322.5 842Q324 847 327 847Q332 847 346 837.5Q360 828 378.5 814Q397 800 419.5 783.5Q442 767 464 753Q486 739 507 729.5Q528 720 544 720Q575 720 608.5 724.5Q642 729 672 737Q683 740 689.5 745Q696 750 701 755.5Q706 761 711.5 766.5Q717 772 726 775Q737 779 749 779.5Q761 780 772.5 780.5Q784 781 795 784Q806 787 816 797Q823 804 832 819Q841 834 849 852Q857 870 863 886.5Q869 903 869 913Q869 930 873.5 945.5Q878 961 883 977Q888 993 892.5 1008.5Q897 1024 897 1041Q897 1068 890.5 1093.5Q884 1119 884 1145Q884 1154 893 1160.5Q902 1167 914 1171.5Q926 1176 938 1178Q950 1180 957 1180Q972 1180 981.5 1172.5Q991 1165 999 1155.5Q1007 1146 1016 1138Q1025 1130 1038 1129Q1044 1128 1050.5 1126Q1057 1124 1057 1116Q1057 1098 1043.5 1086.5Q1030 1075 1014.5 1066Q999 1057 985.5 1048.5Q972 1040 972 1027Q972 1020 979 1018.5Q986 1017 991 1017Q1008 1017 1024 1022Q1040 1027 1057 1027Q1067 1027 1072.5 1022Q1078 1017 1080.5 1010Q1083 1003 1083 994Q1083 985 1083 978Q1083 930 1092.5 884Q1102 838 1102 790Z"/><path id="gSpecialElite-161" d="M349 729Q349 714 342 704Q335 694 325.5 685.5Q316 677 305 669.5Q294 662 286 653Q274 639 264.5 626.5Q255 614 232 614Q218 614 201 622Q184 630 168.5 642.5Q153 655 142.5 669.5Q132 684 132 698Q132 708 137 714.5Q142 721 142 729Q142 742 144 749Q146 756 148.5 761Q151 766 154 771.5Q157 777 159 786Q161 796 159.5 804.5Q158 813 163 821Q171 837 190 841.5Q209 846 224 846Q237 846 259.5 842.5Q282 839 292 831Q297 826 299 821Q301 816 304 811Q309 806 315.5 803Q322 800 327 795Q336 785 342.5 764Q349 743 349 729Z"/><path id="gSpecialElite-368" d="M610 246Q610 210 592.5 191Q575 172 553.5 161Q532 150 514 142.5Q496 135 496 121L502 113Q506 113 517.5 111.5Q529 110 540.5 107Q552 104 561 100Q570 96 570 91Q569 87 566 84.5Q563 82 560 80Q552 74 545 73Q538 72 533 70.5Q528 69 524 64.5Q520 60 517 46Q514 34 506 28.5Q498 23 489.5 19.5Q481 16 474 12Q467 8 467 -1V-3Q444 14 416 14Q387 14 359 4.5Q331 -5 302 -5Q278 -5 250 9Q222 23 198 44.5Q174 66 158 92.5Q142 119 142 145Q142 152 145.5 157.5Q149 163 154 168Q149 181 142 185Q135 189 128.5 191Q122 193 117.5 197.5Q113 202 113 216Q113 236 110.5 254.5Q108 273 108 292Q108 303 109.5 314Q111 325 115.5 333.5Q120 342 128 347.5Q136 353 149 353H154Q146 364 141 377.5Q136 391 136 405Q136 407 136.5 409.5Q137 412 140 412Q145 412 149.5 409.5Q154 407 159 406L168 410Q173 415 173 420Q173 425 170 428Q167 431 166 436Q170 441 177.5 442.5Q185 444 190 445Q203 448 207.5 452Q212 456 213 461.5Q214 467 215.5 472Q217 477 225 481Q231 484 248 487Q265 490 284.5 493Q304 496 322.5 498Q341 500 349 501Q355 490 373.5 484.5Q392 479 416 476Q440 473 467 470Q494 467 516.5 460Q539 453 553.5 440Q568 427 568 405L567 396L563 395Q552 395 543 402Q534 409 523 409Q518 416 505 406.5Q492 397 481 384.5Q470 372 466 361.5Q462 351 476 356Q483 358 489.5 362.5Q496 367 504 367Q508 367 514 361.5Q520 356 528.5 350Q537 344 547 338.5Q557 333 571 333Q584 333 596 339Q600 316 605 293Q610 270 610 246ZM457 193Q451 205 439 210L440 208Q440 204 435.5 200.5Q431 197 425 194Q419 191 414.5 188Q410 185 410 183Q410 180 416 179Q422 178 424 178Q431 178 444 181.5Q457 185 457 193ZM382 239Q366 238 350.5 234.5Q335 231 318 231Q301 231 282 239V196Q291 201 300 202.5Q309 204 319 204H340Q375 204 382 239ZM240 120V123Q240 135 233.5 141Q227 147 218 151Q209 155 199 158.5Q189 162 182 168Q185 112 239 111Z"/><path id="gSpecialElite-48" d="M1227 38Q1227 24 1222 17.5Q1217 11 1210.5 6Q1204 1 1199 -4Q1194 -9 1194 -19Q1194 -25 1195 -28Q1160 -37 1117.5 -40Q1075 -43 1039 -43Q1034 -43 1026.5 -40.5Q1019 -38 1012 -34.5Q1005 -31 1000.5 -25.5Q996 -20 996 -14Q984 -18 969.5 -20.5Q955 -23 941.5 -27Q928 -31 916 -38Q904 -45 896 -57Q883 -53 861.5 -50Q840 -47 816 -43Q792 -39 768 -33.5Q744 -28 724.5 -19.5Q705 -11 692.5 1Q680 13 680 31Q680 36 681 48.5Q682 61 685 74Q688 87 692.5 97Q697 107 703 107Q713 107 722.5 103Q732 99 743 99L753 100L754 108Q754 116 749.5 120.5Q745 125 738 126.5Q731 128 724 128Q717 128 711 128Q724 141 728 159Q732 177 732 194Q732 212 727.5 235.5Q723 259 713 281Q703 303 688.5 320Q674 337 654 342Q648 355 640 369.5Q632 384 621.5 396Q611 408 597.5 416Q584 424 568 424Q550 424 522 405Q494 386 467.5 361.5Q441 337 421.5 314Q402 291 402 283Q402 272 405 262Q408 252 408 241Q408 224 401 210Q394 196 383 185Q386 167 398 158Q410 149 426.5 144.5Q443 140 460 138.5Q477 137 491 134Q497 128 508.5 119Q520 110 530.5 99.5Q541 89 549 78Q557 67 557 58Q557 48 549.5 46Q542 44 533 43Q524 42 516.5 39Q509 36 509 26Q509 19 511 14Q463 12 417.5 4.5Q372 -3 326 -14Q307 -19 288 -20Q269 -21 249.5 -21Q230 -21 210 -22Q190 -23 171 -27Q157 -30 143 -30Q120 -30 100 -21Q80 -12 65 4Q50 20 41.5 40Q33 60 33 83Q33 105 45.5 124Q58 143 84 143Q92 143 97 135.5Q102 128 110 128Q114 128 117 132.5Q120 137 123.5 143Q127 149 133 154Q139 159 148 161Q176 165 194.5 180Q213 195 223 216.5Q233 238 237 263.5Q241 289 241 314Q241 334 236.5 352.5Q232 371 232 390Q232 416 241.5 443.5Q251 471 251 505Q251 552 245.5 597.5Q240 643 240 690Q240 725 244 761Q248 797 248 832Q248 845 244.5 856.5Q241 868 237 878.5Q233 889 229.5 898.5Q226 908 226 918Q226 938 233 958Q240 978 240 998Q240 1021 232.5 1042Q225 1063 225 1086Q225 1103 228.5 1120.5Q232 1138 232 1156Q232 1192 216.5 1210Q201 1228 178 1236.5Q155 1245 127.5 1247Q100 1249 77 1253.5Q54 1258 38.5 1269Q23 1280 23 1305Q23 1334 36 1352.5Q49 1371 69 1381Q89 1391 113 1394.5Q137 1398 160 1398Q225 1384 262 1374Q299 1364 317.5 1357Q336 1350 340.5 1346Q345 1342 347 1339Q353 1321 357.5 1285Q362 1249 365 1209.5Q368 1170 369.5 1133.5Q371 1097 371 1079Q371 1052 363 1027.5Q355 1003 355 977Q355 949 362.5 923Q370 897 372 869Q373 851 373.5 833.5Q374 816 374 798Q374 772 373.5 745Q373 718 373 691Q373 653 375 616Q377 579 383 542Q388 540 392 540Q396 540 401 540Q421 540 434 550.5Q447 561 458 575Q469 589 481 603.5Q493 618 511 626Q535 636 551.5 655.5Q568 675 583 696Q598 717 614.5 735.5Q631 754 655 764Q680 774 680 800Q680 815 676 829.5Q672 844 666.5 858Q661 872 657 886.5Q653 901 653 916L654 927L662 926H665Q669 926 673 926.5Q677 927 677 931Q672 939 672 949Q672 963 678.5 967Q685 971 697 971Q719 971 739.5 963Q760 955 782 955Q798 955 812.5 959.5Q827 964 842 969.5Q857 975 871.5 979.5Q886 984 902 984Q929 984 955 977Q981 970 1008 970Q1036 970 1063 978Q1090 986 1119 986Q1124 986 1133 983Q1142 980 1150.5 975Q1159 970 1165.5 964Q1172 958 1172 952Q1170 945 1164 942.5Q1158 940 1158 936Q1158 931 1163 924.5Q1168 918 1174.5 910.5Q1181 903 1186 894.5Q1191 886 1191 877Q1191 864 1167 852Q1143 840 1111.5 830.5Q1080 821 1050 815.5Q1020 810 1008 810Q987 810 976.5 817.5Q966 825 956 825Q940 825 915 812.5Q890 800 861.5 780Q833 760 804 734.5Q775 709 751.5 684Q728 659 712.5 636Q697 613 697 598Q696 582 692 567Q688 552 688 536Q688 522 697 513Q706 504 718 496.5Q730 489 742.5 480Q755 471 761 458Q770 438 788 412.5Q806 387 827.5 358.5Q849 330 871 301Q893 272 911.5 244.5Q930 217 941.5 192.5Q953 168 953 150V143Q1003 154 1051 154Q1084 154 1116.5 150.5Q1149 147 1181 143V134V129Q1181 109 1188 96.5Q1195 84 1204 74.5Q1213 65 1220 56.5Q1227 48 1227 38Z"/><path id="gSpecialElite-21" d="M1102 1326Q1102 1313 1094.5 1303.5Q1087 1294 1077.5 1285Q1068 1276 1059 1265.5Q1050 1255 1047 1240H1044Q1036 1241 1027.5 1241.5Q1019 1242 1011 1242Q969 1242 929 1236Q889 1230 847 1226Q839 1205 830 1198.5Q821 1192 813.5 1185Q806 1178 801 1162.5Q796 1147 796 1107Q796 1065 800 1025Q804 985 804 944Q804 911 798.5 878Q793 845 793 811Q793 768 799 725.5Q805 683 805 639Q805 586 812 534.5Q819 483 819 430Q819 415 815 386Q811 357 804.5 325.5Q798 294 790.5 266.5Q783 239 776 228Q766 212 749 205Q732 198 719 185Q711 178 701 164Q691 150 680.5 135.5Q670 121 659 109.5Q648 98 639 96Q632 88 625.5 79.5Q619 71 611 63Q601 54 598 48.5Q595 43 592 39.5Q589 36 583.5 34.5Q578 33 563 32Q541 30 520.5 24Q500 18 479.5 11.5Q459 5 438.5 -0.5Q418 -6 396 -6Q354 -6 317 6.5Q280 19 243 39Q230 46 221.5 49.5Q213 53 206 56.5Q199 60 191.5 66.5Q184 73 174 85Q153 111 128 129Q103 147 76 167Q62 177 54 193.5Q46 210 41.5 229Q37 248 35.5 267.5Q34 287 34 303Q34 322 35.5 344.5Q37 367 41 389.5Q45 412 51.5 433Q58 454 68 471Q80 490 89.5 504.5Q99 519 111 528Q123 537 139 541.5Q155 546 180 546Q216 546 241.5 542Q267 538 286 526Q305 514 318 492Q331 470 342 434Q347 417 350 399.5Q353 382 353 365Q353 346 346.5 326Q340 306 320 299Q312 289 303 278.5Q294 268 286.5 256.5Q279 245 273.5 232.5Q268 220 268 207Q268 180 285.5 164.5Q303 149 327.5 141.5Q352 134 377.5 132.5Q403 131 418 131Q439 131 457 141Q475 151 494 158Q511 164 530 168.5Q549 173 567 178.5Q585 184 602 192Q619 200 633 214Q656 292 659.5 374.5Q663 457 663 538Q662 556 659.5 561.5Q657 567 654 569.5Q651 572 649 575Q647 578 647 590Q647 607 651.5 624.5Q656 642 656 660Q656 689 650.5 716.5Q645 744 645 773Q645 830 653.5 885.5Q662 941 662 998Q662 1010 655.5 1020.5Q649 1031 649 1043Q649 1052 654 1059.5Q659 1067 659 1076Q659 1085 653 1099Q647 1113 639.5 1129Q632 1145 624.5 1161.5Q617 1178 615 1191Q612 1212 607 1223.5Q602 1235 594 1240.5Q586 1246 573 1247.5Q560 1249 540 1251Q510 1254 480.5 1254.5Q451 1255 421 1255Q406 1255 398.5 1257Q391 1259 386.5 1263Q382 1267 378 1274Q374 1281 366 1292Q355 1306 345 1322Q335 1338 335 1358Q335 1374 343.5 1384.5Q352 1395 365 1401.5Q378 1408 393 1410.5Q408 1413 421 1413Q445 1413 469 1410Q493 1407 518 1407Q540 1407 553.5 1412Q567 1417 576.5 1422.5Q586 1428 596 1433Q606 1438 621 1438Q647 1438 672.5 1432Q698 1426 724 1426Q738 1426 751.5 1422.5Q765 1419 778.5 1414.5Q792 1410 805 1406.5Q818 1403 832 1403Q855 1403 876.5 1411.5Q898 1420 921 1420Q939 1420 956 1417Q973 1414 990 1411Q1010 1407 1026.5 1405Q1043 1403 1056.5 1397.5Q1070 1392 1080.5 1380.5Q1091 1369 1099 1346Q1102 1337 1102 1326ZM449 1355Q449 1360 444.5 1365Q440 1370 434 1370Q424 1370 422 1359Q420 1348 420 1340Q427 1340 438 1342Q449 1344 449 1355Z"/><path id="gSpecialElite-42" d="M1026 209Q1026 182 1017.5 163Q1009 144 995.5 129Q982 114 964.5 101Q947 88 929 73Q915 61 904 55Q893 49 882.5 45Q872 41 860.5 37Q849 33 834 26Q814 16 800.5 7.5Q787 -1 773.5 -8Q760 -15 744 -19.5Q728 -24 704 -27Q664 -32 623.5 -39Q583 -46 543 -46Q535 -46 526.5 -42.5Q518 -39 507 -35.5Q496 -32 482.5 -28.5Q469 -25 450 -25Q430 -25 418 -19Q406 -13 396.5 -5Q387 3 377 12.5Q367 22 351 29Q291 56 249 94Q207 132 177 179Q147 226 127 281Q107 336 93 396Q82 438 82 480Q82 535 108 582Q98 610 98 636Q98 655 109 692.5Q120 730 137.5 768Q155 806 175.5 836.5Q196 867 214 874Q228 879 233.5 882.5Q239 886 239 902Q239 914 248.5 922Q258 930 271.5 935Q285 940 298.5 944Q312 948 321 952Q358 970 391.5 982.5Q425 995 458.5 1003.5Q492 1012 528 1016Q564 1020 605 1020Q627 1020 648 1014Q669 1008 688.5 998.5Q708 989 727 977.5Q746 966 764 955H763Q778 953 791.5 946.5Q805 940 820 938Q834 921 856.5 905.5Q879 890 900.5 873Q922 856 937.5 836.5Q953 817 953 792Q953 788 952.5 784Q952 780 951 775L955 780Q959 777 962.5 770Q966 763 969 754.5Q972 746 974 737.5Q976 729 977 724Q985 711 998.5 703Q1012 695 1020 681Q1010 671 1010 655Q1010 638 1017 621.5Q1024 605 1024 588Q1024 568 1022 549.5Q1020 531 1020 511Q1020 496 1008.5 488Q997 480 983.5 474Q970 468 959 462Q948 456 948 445Q948 437 938.5 437.5Q929 438 923 438Q879 438 835.5 449Q792 460 749 460Q702 460 656 453.5Q610 447 563 447Q528 447 493.5 449Q459 451 424 451Q415 451 390 447.5Q365 444 337.5 438.5Q310 433 285 425.5Q260 418 250 411Q249 406 249 397Q249 350 276.5 300Q304 250 349 209Q394 168 450 141Q506 114 563 114Q596 114 628.5 111.5Q661 109 692 97Q719 110 741.5 127Q764 144 785 163Q806 182 826 202Q846 222 867 242Q871 246 886.5 249.5Q902 253 920 255.5Q938 258 954.5 259.5Q971 261 977 261Q1000 261 1020 254Q1026 231 1026 209ZM876 615Q876 630 871 644Q866 658 863 673Q858 701 858 727.5Q858 754 850 781H849Q849 775 845 769.5Q841 764 834 764Q822 764 811 770Q800 776 792 785Q754 802 723.5 817Q693 832 662.5 843.5Q632 855 597.5 861.5Q563 868 518 868Q514 868 510.5 867.5Q507 867 504 864L509 853L501 851Q474 846 456.5 841.5Q439 837 425 829Q411 821 397.5 809.5Q384 798 363 780Q353 771 341.5 766.5Q330 762 318.5 758.5Q307 755 296.5 751Q286 747 279 738Q272 713 258.5 689.5Q245 666 245 640Q245 625 257.5 613.5Q270 602 289.5 594Q309 586 332.5 580Q356 574 379 571Q402 568 421.5 566.5Q441 565 452 565Q490 565 527 572.5Q564 580 602 580Q641 580 680 576.5Q719 573 758 573Q768 573 788 574Q808 575 827.5 579.5Q847 584 861.5 592.5Q876 601 876 615Z"/><path id="gSpecialElite-27" d="M97 1283Q93 1278 88.5 1274Q84 1270 78 1270Q71 1270 66.5 1276Q62 1282 62 1289Q62 1290 63 1292Q64 1294 64 1296L70 1298Q78 1298 85 1293Q92 1288 97 1283ZM382 570V567Q381 570 381 572.5Q381 575 381 577L382 571ZM1079 1031Q1079 1016 1078 997Q1077 978 1074.5 958Q1072 938 1068.5 919.5Q1065 901 1060 887Q1046 853 1023.5 825Q1001 797 988 762Q985 753 971 742Q957 731 940 720Q923 709 906.5 699.5Q890 690 881 684Q824 649 767 631Q710 613 644 613H638Q622 622 611.5 625Q601 628 582 628Q563 628 545 627Q527 626 509 624Q502 623 481.5 616.5Q461 610 439 601.5Q417 593 399.5 584.5Q382 576 382 571V567Q384 560 387 560Q392 560 396.5 565.5Q401 571 407 571Q412 571 415 566Q418 561 419.5 554.5Q421 548 421.5 541.5Q422 535 422 532Q422 503 416 474.5Q410 446 410 417Q410 388 409.5 359.5Q409 331 409 302Q409 249 414.5 222Q420 195 436 181.5Q452 168 480 161.5Q508 155 553 143Q550 134 550 126Q550 114 557.5 108.5Q565 103 573.5 97.5Q582 92 589.5 85Q597 78 597 63Q597 50 587 40Q575 28 571.5 20Q568 12 565 7.5Q562 3 554 0.5Q546 -2 525 -3Q477 -6 430 -6Q412 -6 394 -5.5Q376 -5 357 -5Q309 -5 263 -8Q235 -10 208.5 -17Q182 -24 153 -24Q120 -24 108 -5Q96 14 96 44Q96 73 109 92.5Q122 112 141.5 124.5Q161 137 183.5 145Q206 153 225.5 160.5Q245 168 258 176Q271 184 271 197Q271 209 266.5 220Q262 231 262 243Q262 250 269 270Q276 290 276 317Q276 328 276 338.5Q276 349 275 360Q269 363 266 372Q263 381 261.5 391.5Q260 402 260 412.5Q260 423 260 429Q260 467 265 504.5Q270 542 270 580Q270 604 267 627Q264 650 264 674Q264 681 268 684Q259 691 259 704Q259 718 263.5 730Q268 742 268 755Q268 775 264 795Q260 815 255.5 834.5Q251 854 247.5 873.5Q244 893 244 913Q244 925 247.5 936Q251 947 254.5 958.5Q258 970 261.5 981.5Q265 993 265 1006Q265 1040 258.5 1072.5Q252 1105 252 1139Q252 1159 261.5 1168.5Q271 1178 282 1184Q293 1190 302.5 1195.5Q312 1201 312 1212Q312 1219 305.5 1224Q299 1229 293 1229Q279 1229 269 1220Q259 1211 246 1211Q238 1211 231.5 1221.5Q225 1232 217.5 1244Q210 1256 200.5 1266.5Q191 1277 178 1277Q167 1277 156 1274Q145 1271 134 1271Q119 1271 115 1278Q111 1285 111 1296Q111 1301 111.5 1306Q112 1311 112 1316Q112 1324 109 1333Q106 1342 95 1342Q89 1342 83 1340Q97 1358 120 1367.5Q143 1377 168.5 1382Q194 1387 220.5 1389.5Q247 1392 268 1397Q276 1399 282.5 1400Q289 1401 297 1401Q315 1401 332.5 1397.5Q350 1394 367 1394Q386 1394 397.5 1402.5Q409 1411 425 1411Q433 1407 446 1401.5Q459 1396 467 1396Q501 1396 534 1400Q567 1404 600 1404Q636 1404 669.5 1394.5Q703 1385 736.5 1373Q770 1361 803 1349Q836 1337 871 1331Q883 1329 894.5 1322Q906 1315 917 1305.5Q928 1296 938.5 1286Q949 1276 958 1269Q972 1258 980.5 1244Q989 1230 997.5 1215.5Q1006 1201 1015.5 1187.5Q1025 1174 1040 1164Q1054 1155 1062 1138.5Q1070 1122 1073.5 1103Q1077 1084 1078 1065Q1079 1046 1079 1031ZM914 970Q914 1034 894.5 1086.5Q875 1139 838.5 1176.5Q802 1214 750 1235Q698 1256 634 1256Q624 1256 604 1256Q584 1256 560 1255Q536 1254 510 1252Q484 1250 462 1246.5Q440 1243 423.5 1237.5Q407 1232 402 1224Q395 1213 382.5 1197.5Q370 1182 370 1170Q370 1159 376 1147.5Q382 1136 389.5 1123Q397 1110 403.5 1096.5Q410 1083 410 1069Q402 1068 395 1064.5Q388 1061 388 1052Q388 1037 397.5 1019Q407 1001 407 982Q407 968 401 960.5Q395 953 388 948Q381 943 375 938Q369 933 369 925Q369 916 382 895Q395 874 411 850.5Q427 827 440 807.5Q453 788 453 784Q477 781 500 781Q515 781 549.5 782.5Q584 784 622 786.5Q660 789 693 792Q726 795 738 798Q751 801 756 807Q761 813 766 819Q771 825 778.5 829.5Q786 834 803 834Q834 834 855.5 845Q877 856 890 874.5Q903 893 908.5 917.5Q914 942 914 970Z"/><path id="gSpecialElite-46" d="M678 1255Q678 1226 668.5 1195.5Q659 1165 641 1139.5Q623 1114 597.5 1097.5Q572 1081 541 1081Q520 1081 489 1087.5Q458 1094 429.5 1106.5Q401 1119 380.5 1139Q360 1159 360 1186Q360 1210 365.5 1235.5Q371 1261 372 1287Q382 1292 392 1305Q402 1318 411.5 1331.5Q421 1345 430.5 1356Q440 1367 450 1368L445 1366Q459 1372 474.5 1376Q490 1380 506 1380Q527 1380 556.5 1369.5Q586 1359 613 1342Q640 1325 659 1302Q678 1279 678 1255ZM1162 38Q1162 21 1155.5 6Q1149 -9 1137.5 -20.5Q1126 -32 1111 -39Q1096 -46 1078 -46Q1071 -46 1069 -44Q1067 -42 1062 -37Q1048 -22 1028 -19.5Q1008 -17 986.5 -14.5Q965 -12 945.5 -3.5Q926 5 914 31Q906 48 897 53Q888 58 869 58Q825 58 785 44Q745 30 706 12.5Q667 -5 626.5 -19Q586 -33 543 -33Q519 -33 495.5 -28.5Q472 -24 450 -14Q445 -19 438.5 -21Q432 -23 424 -23Q417 -23 410.5 -22Q404 -21 399 -21Q398 -21 388 -24.5Q378 -28 376 -29L382 -39Q376 -48 355 -56.5Q334 -65 309.5 -71Q285 -77 262 -81Q239 -85 227 -85Q195 -85 174.5 -74.5Q154 -64 134 -38Q127 -28 116.5 -18Q106 -8 96.5 2.5Q87 13 80.5 25Q74 37 74 50Q74 65 90 75Q106 85 128 91.5Q150 98 172 100.5Q194 103 206 103Q230 103 254 96.5Q278 90 302 90Q324 90 344 96Q364 102 386 102Q405 102 423.5 99.5Q442 97 461 97Q485 97 507.5 105.5Q530 114 550 128Q558 177 561.5 226Q565 275 565 325Q565 374 557 423Q549 472 549 520Q549 524 551 524.5Q553 525 555.5 525.5Q558 526 560 527.5Q562 529 562 535Q562 556 556 576Q550 596 550 617Q550 643 557 668Q564 693 564 719Q564 737 556 755Q548 773 535 787Q522 801 505 809.5Q488 818 469 818Q448 818 427.5 813Q407 808 385 801.5Q363 795 340.5 790Q318 785 293 785Q264 785 236 789Q208 793 179 798Q165 800 147.5 802Q130 804 114 809Q98 814 87 824Q76 834 76 853Q76 888 88.5 906.5Q101 925 119.5 934Q138 943 161 945Q184 947 205 949Q243 952 280.5 954.5Q318 957 356 957Q403 957 448.5 951.5Q494 946 541 946Q574 946 604 936Q634 926 656.5 905.5Q679 885 692 854Q705 823 705 782Q705 755 693.5 729.5Q682 704 664 684Q671 671 678 666.5Q685 662 691 658.5Q697 655 701 649.5Q705 644 705 629Q705 621 707.5 610.5Q710 600 721 599Q721 545 720 492.5Q719 440 719 387Q719 342 719.5 297Q720 252 727 207Q731 179 743 164Q755 149 786 149Q831 149 875 158.5Q919 168 964 168Q990 168 1013.5 155Q1037 142 1058.5 127Q1080 112 1100 99Q1120 86 1138 86Q1146 86 1151 80.5Q1156 75 1158.5 67.5Q1161 60 1161.5 52Q1162 44 1162 38Z"/><path id="gSpecialElite-51" d="M1252 26Q1252 12 1245 3Q1238 -6 1227.5 -11Q1217 -16 1204.5 -17.5Q1192 -19 1181 -19Q1166 -19 1151 -17Q1136 -15 1121 -13Q1101 -20 1073.5 -27.5Q1046 -35 1024 -35Q1018 -35 1012.5 -33Q1007 -31 1002 -31Q985 -31 967.5 -37.5Q950 -44 933 -44Q904 -44 877.5 -36.5Q851 -29 822 -27Q775 -23 749.5 9.5Q724 42 722 87Q753 106 787.5 113Q822 120 857 120Q877 120 896.5 119Q916 118 936 116Q933 191 923 266Q913 341 913 417Q913 443 914.5 469Q916 495 921 521Q926 547 934 572.5Q942 598 942 624Q942 641 937 655.5Q932 670 924 685Q917 697 915 712Q913 727 910 742.5Q907 758 901 773Q895 788 881.5 800Q868 812 844 819Q820 826 781 826Q769 826 745.5 822.5Q722 819 697.5 813.5Q673 808 651.5 800.5Q630 793 622 785Q617 780 609.5 771Q602 762 593.5 752.5Q585 743 577 735.5Q569 728 563 727Q548 724 540.5 722Q533 720 528.5 716Q524 712 521 704.5Q518 697 511 683Q509 679 503 667.5Q497 656 491 656Q486 656 484 660Q482 664 477 664Q475 664 471.5 661.5Q468 659 466 657V629Q459 621 453.5 620.5Q448 620 444.5 619Q441 618 439.5 614Q438 610 438 595Q438 584 433 575Q428 566 422.5 557Q417 548 412 538.5Q407 529 407 517Q407 497 412.5 478.5Q418 460 418 440Q418 427 414 418Q410 409 404.5 401.5Q399 394 395 387Q391 380 391 370Q391 356 396.5 344.5Q402 333 408 321Q414 309 419.5 296Q425 283 425 268Q425 251 421 233.5Q417 216 417 198Q417 177 423.5 165.5Q430 154 440.5 148Q451 142 465 139Q479 136 493.5 130.5Q508 125 523 115.5Q538 106 551 87L557 88Q574 88 582 74Q590 60 590 45Q590 31 584 20.5Q578 10 578 -7Q578 -19 552 -27Q526 -35 493 -39.5Q460 -44 429.5 -45.5Q399 -47 389 -47Q377 -47 352.5 -46.5Q328 -46 297.5 -44.5Q267 -43 234 -40Q201 -37 173 -31.5Q145 -26 125.5 -17.5Q106 -9 101 3Q96 15 91 29.5Q86 44 86 58Q86 73 93.5 85Q101 97 112 107Q127 121 145 123.5Q163 126 180.5 126.5Q198 127 214.5 129.5Q231 132 243.5 145Q256 158 263.5 186Q271 214 271 265Q271 278 269 291.5Q267 305 264 317.5Q261 330 259 340Q257 350 257 355Q257 361 260.5 368Q264 375 268.5 382.5Q273 390 276.5 399Q280 408 280 419Q280 436 273.5 452Q267 468 267 485Q267 499 272 512Q277 525 277 539Q277 550 271 560Q265 570 265 582Q265 593 269 604.5Q273 616 273 628Q273 654 267 681.5Q261 709 256 735Q250 766 233.5 781.5Q217 797 196 805Q175 813 152 818Q129 823 110 833.5Q91 844 78.5 863.5Q66 883 66 921Q66 947 81.5 961Q97 975 119 981.5Q141 988 165.5 989Q190 990 208 990Q237 990 265.5 981.5Q294 973 323 971Q336 970 348 962.5Q360 955 370 944.5Q380 934 386 921Q392 908 393 895Q393 889 397 873.5Q401 858 406.5 842Q412 826 418.5 813.5Q425 801 432 801Q438 806 440.5 812.5Q443 819 445 825Q446 831 458.5 841Q471 851 486.5 862Q502 873 516.5 883Q531 893 537 899Q543 906 546.5 913.5Q550 921 553.5 927.5Q557 934 562.5 938Q568 942 580 942H585Q596 942 606 951.5Q616 961 632 973Q648 985 674 994.5Q700 1004 743 1004Q780 1004 817 1002.5Q854 1001 887.5 992Q921 983 950.5 964Q980 945 1002 911Q1019 884 1030 871Q1041 858 1048 846Q1055 834 1057.5 817Q1060 800 1060 766Q1060 752 1065 740Q1070 728 1076.5 715.5Q1083 703 1088 689Q1093 675 1093 657Q1093 622 1089 587.5Q1085 553 1085 518Q1085 493 1075.5 469Q1066 445 1066 420Q1066 408 1072 397Q1078 386 1078 372Q1078 355 1074 337.5Q1070 320 1070 303Q1070 287 1077.5 275Q1085 263 1085 248Q1085 240 1081.5 235Q1078 230 1073.5 225Q1069 220 1065.5 214.5Q1062 209 1062 201Q1062 186 1069.5 170.5Q1077 155 1089 142.5Q1101 130 1116 122.5Q1131 115 1146 115Q1159 115 1168.5 120.5Q1178 126 1189 126Q1203 126 1214.5 114.5Q1226 103 1234.5 87Q1243 71 1247.5 54Q1252 37 1252 26ZM1036 403Q1036 413 1029.5 422.5Q1023 432 1012 432Q1001 432 997 421.5Q993 411 993 402Q993 391 997 381Q1001 371 1013 371Q1023 371 1028.5 377.5Q1034 384 1036 401ZM1053 211Q1053 218 1047.5 222.5Q1042 227 1036 230Q1034 224 1029 218Q1024 212 1019 205Q1014 198 1009.5 191Q1005 184 1005 177Q1005 169 1010 165Q1015 161 1022 158Q1023 164 1028.5 170Q1034 176 1039 183Q1044 190 1048.5 196.5Q1053 203 1053 211ZM388 426Q388 433 385.5 443Q383 453 378.5 462.5Q374 472 367.5 478.5Q361 485 352 485Q341 485 333 478.5Q325 472 313 472H309Q306 461 306 451L307 445L308 448Q311 437 320 431Q329 425 339.5 420.5Q350 416 361 412Q372 408 380 401Q388 410 388 426Z"/><path id="gSpecialElite-50" d="M1296 47Q1296 40 1293.5 25.5Q1291 11 1285.5 -3.5Q1280 -18 1273 -29Q1266 -40 1257 -40Q1246 -40 1235 -35.5Q1224 -31 1213 -31Q1178 -31 1144 -37.5Q1110 -44 1075 -44Q1058 -44 1043 -39.5Q1028 -35 1013.5 -30Q999 -25 984 -20Q969 -15 953 -13Q929 -11 916.5 6Q904 23 904 46Q904 73 918.5 91.5Q933 110 951 130.5Q969 151 983.5 180Q998 209 998 258Q998 356 989.5 452.5Q981 549 981 647V677Q981 698 979 720Q977 742 969 759.5Q961 777 946 788Q931 799 904 799Q881 785 860 768.5Q839 752 823 730Q816 720 808 697Q800 674 793 644Q786 614 779.5 580Q773 546 768 515Q763 484 760 458Q757 432 757 419Q757 381 762.5 342.5Q768 304 768 266Q768 246 764.5 227.5Q761 209 761 189Q761 181 762 173Q763 165 768 157Q779 151 794.5 142Q810 133 823.5 121.5Q837 110 846.5 97Q856 84 856 70Q856 41 835 23Q814 5 786 5Q779 5 773 6Q767 7 760 7Q750 7 740.5 3.5Q731 0 721 -4.5Q711 -9 700.5 -12.5Q690 -16 678 -16Q647 -16 618 -8Q589 0 558 0Q549 0 542 7.5Q535 15 530.5 25Q526 35 524 46Q522 57 522 64Q522 82 529.5 91.5Q537 101 548 108Q559 115 572.5 122.5Q586 130 597 143Q608 156 615.5 178.5Q623 201 623 238Q623 253 619 267Q615 281 610.5 295Q606 309 602.5 323Q599 337 599 352Q599 378 605 404Q611 430 611 456Q611 475 604 492Q597 509 597 527Q597 540 604.5 550Q612 560 612 573Q612 577 610 588Q608 599 605.5 613.5Q603 628 601 644Q599 660 599 674Q599 692 603.5 710Q608 728 608 746Q608 757 602.5 766.5Q597 776 588 783.5Q579 791 568 795Q557 799 547 799Q530 799 514 792.5Q498 786 484 776Q470 766 457 754Q444 742 432 731Q429 722 426.5 712Q424 702 419 694Q415 688 406.5 684Q398 680 389.5 676Q381 672 374.5 667.5Q368 663 368 654Q368 646 373.5 641Q379 636 385 634Q395 612 395 593Q395 576 391.5 560Q388 544 383.5 528.5Q379 513 375.5 496.5Q372 480 372 464L373 364Q373 350 376.5 345.5Q380 341 384.5 338.5Q389 336 393.5 331Q398 326 401 310Q404 290 406.5 269.5Q409 249 409 229Q409 208 405 187.5Q401 167 401 146Q401 124 407.5 113.5Q414 103 424 98.5Q434 94 445 92.5Q456 91 466 87Q476 83 482.5 73Q489 63 489 41Q489 21 478 8.5Q467 -4 448 -9Q385 -26 317 -36Q249 -46 184 -46Q164 -46 150 -44.5Q136 -43 127.5 -36.5Q119 -30 115 -16Q111 -2 111 24Q111 47 129.5 65.5Q148 84 169.5 101Q191 118 209.5 135.5Q228 153 228 174Q228 183 227.5 190.5Q227 198 227 204Q227 213 229.5 222Q232 231 240 242Q240 264 235.5 286Q231 308 226 329.5Q221 351 216.5 372.5Q212 394 212 417Q212 464 220.5 509Q229 554 229 601Q229 627 227.5 652Q226 677 224 703Q221 733 217 751.5Q213 770 204.5 783Q196 796 180.5 805.5Q165 815 137 828Q121 836 108.5 849Q96 862 96 881Q96 902 105.5 910.5Q115 919 127.5 923.5Q140 928 152 932Q164 936 169 948Q173 957 176.5 958.5Q180 960 190 960Q217 960 242 951.5Q267 943 290 933.5Q313 924 334.5 915.5Q356 907 376 907Q397 907 420.5 920.5Q444 934 472 950Q500 966 534.5 979.5Q569 993 613 993Q630 993 648 985Q666 977 683 965Q700 953 714.5 939Q729 925 739 912Q763 935 795 952Q827 969 862 980Q897 991 933 996Q969 1001 1002 1001Q1027 1001 1047 987.5Q1067 974 1082.5 951.5Q1098 929 1109.5 901Q1121 873 1130.5 845Q1140 817 1147 790.5Q1154 764 1160 746Q1162 741 1163 736Q1164 731 1164 725Q1164 711 1160 698Q1156 685 1151.5 672.5Q1147 660 1143 647Q1139 634 1139 620Q1139 606 1144.5 593Q1150 580 1150 566Q1150 551 1144 537.5Q1138 524 1138 509Q1138 489 1145.5 471Q1153 453 1153 433Q1153 418 1148.5 404.5Q1144 391 1138.5 377Q1133 363 1128.5 349.5Q1124 336 1124 321Q1124 316 1125 311.5Q1126 307 1128 302L1167 204Q1176 183 1197 164Q1218 145 1240 127Q1262 109 1279 89.5Q1296 70 1296 47Z"/><path id="gJetBrainsMonow400-235" d="M220 0V413H60V495H220V590Q220 655 261 692.5Q302 730 374 730H535V648H374Q343 648 326.5 633.5Q310 619 310 590V495H535V413H310V0Z"/><path id="gJetBrainsMonow400-246" d="M85 0V82H280V468H110V550H370V82H555V0ZM315 649Q282 649 263 666Q244 683 244 712Q244 742 263 759.5Q282 777 315 777Q348 777 367 759.5Q386 742 386 712Q386 683 367 666Q348 649 315 649Z"/><path id="gJetBrainsMonow400-236" d="M161 -180V-98H336Q378 -98 397.5 -79Q417 -60 417 -20V50L419 150H401L418 165Q418 105 378 70Q338 35 271 35Q186 35 137 90.5Q88 146 88 240V356Q88 450 137 505Q186 560 271 560Q338 560 378 525Q418 490 418 430L401 445H418V550H507V-20Q507 -94 461.5 -137Q416 -180 335 -180ZM298 113Q354 113 386 148Q418 183 418 245V350Q418 412 386 447Q354 482 298 482Q241 482 209.5 448Q178 414 178 350V245Q178 181 209.5 147Q241 113 298 113Z"/><path id="gJetBrainsMonow400-571" d="M300 -10Q262 -10 239.5 12Q217 34 217 71Q217 110 239.5 133Q262 156 300 156Q338 156 360.5 133Q383 110 383 71Q383 34 360.5 12Q338 -10 300 -10Z"/><path id="gJetBrainsMonow400-537" d="M90 0V82H288V655L90 507V607L255 730H378V82H540V0Z"/><path id="gJetBrainsMonow400-602" d="M0 290V370H600V290Z"/><path id="gJetBrainsMonow400-320" d="M360 0Q289 0 249.5 38Q210 76 210 145V468H55V550H210V705H300V550H520V468H300V145Q300 82 360 82H510V0Z"/><path id="gJetBrainsMonow400-243" d="M92 0V730H182V550V445H201L182 424Q182 489 221 524.5Q260 560 329 560Q412 560 461 509Q510 458 510 370V0H420V360Q420 419 388.5 451.5Q357 484 303 484Q247 484 214.5 449Q182 414 182 350V0Z"/><path id="gJetBrainsMonow400-216" d="M300 -10Q235 -10 186.5 16Q138 42 111.5 89.5Q85 137 85 200V350Q85 414 111.5 461Q138 508 186.5 534Q235 560 300 560Q365 560 413.5 534Q462 508 488.5 461Q515 414 515 350V253H173V200Q173 135 206 100.5Q239 66 300 66Q352 66 384 84.5Q416 103 423 140H513Q504 71 445.5 30.5Q387 -10 300 -10ZM427 313V350Q427 415 394.5 450Q362 485 300 485Q239 485 206 450Q173 415 173 350V321H434Z"/><path id="gJetBrainsMonow400-265" d="M375 0Q327 0 291 19Q255 38 235 73Q215 108 215 155V648H30V730H305V155Q305 121 324 101.5Q343 82 375 82H550V0Z"/><path id="gJetBrainsMonow400-180" d="M252 -10Q165 -10 115 34.5Q65 79 65 155Q65 232 115 276Q165 320 250 320H420V375Q420 426 389.5 453.5Q359 481 303 481Q254 481 221 460.5Q188 440 183 405H93Q102 476 160 518Q218 560 305 560Q400 560 455 511Q510 462 510 378V0H422V105H407L422 120Q422 60 375.5 25Q329 -10 252 -10ZM274 61Q338 61 379 93Q420 125 420 175V253H252Q207 253 181 228Q155 203 155 160Q155 114 186.5 87.5Q218 61 274 61Z"/><path id="gJetBrainsMonow400-205" d="M332 -10Q264 -10 223 26.5Q182 63 182 126L200 105H182V0H92V730H182V570L180 445H200L182 424Q182 486 223.5 523Q265 560 332 560Q415 560 465 505Q515 450 515 355V194Q515 100 465 45Q415 -10 332 -10ZM302 68Q359 68 392 102Q425 136 425 200V350Q425 414 392 448Q359 482 302 482Q247 482 214.5 447Q182 412 182 350V200Q182 138 214.5 103Q247 68 302 68Z"/><path id="gJetBrainsMonow400-580" d="M300 260Q262 260 239.5 282Q217 304 217 341Q217 380 239.5 403Q262 426 300 426Q338 426 360.5 403Q383 380 383 341Q383 304 360.5 282Q338 260 300 260Z"/><path id="gJetBrainsMonow400-539" d="M289 -10Q223 -10 173.5 16.5Q124 43 97 90Q70 137 70 200H160Q160 139 194.5 104.5Q229 70 290 70Q352 70 386 106Q420 142 420 200V252Q420 314 386 348Q352 382 290 382H215V472L396 648H100V730H487V640L292 451V462Q392 462 451 405Q510 348 510 252V200Q510 137 482.5 90Q455 43 405 16.5Q355 -10 289 -10Z"/><path id="gJetBrainsMonow400-541" d="M298 -10Q209 -10 152 36Q95 82 85 160H175Q180 117 212 93.5Q244 70 299 70Q362 70 393.5 104Q425 138 425 200V271Q425 333 393.5 367Q362 401 300 401Q261 401 232 380.5Q203 360 190 326H100L105 730H489V648H192L189 405H217L189 379Q189 426 226.5 453Q264 480 327 480Q416 481 465.5 425.5Q515 370 515 271V200Q515 103 458 46.5Q401 -10 298 -10Z"/><path id="gJetBrainsMonow400-536" d="M300 -10Q233 -10 183.5 16.5Q134 43 107 91.5Q80 140 80 205V525Q80 591 107 639Q134 687 183.5 713.5Q233 740 300 740Q368 740 417 713.5Q466 687 493 639Q520 591 520 525V205Q520 140 493 91.5Q466 43 416.5 16.5Q367 -10 300 -10ZM300 67Q360 67 396.5 105.5Q433 144 433 205V525Q433 586 396.5 624.5Q360 663 300 663Q240 663 203.5 624.5Q167 586 167 525V205Q167 144 203.5 105.5Q240 67 300 67ZM300 306Q273 306 256.5 323Q240 340 240 368Q240 395 256.5 411.5Q273 428 300 428Q327 428 343.5 411.5Q360 395 360 368Q360 340 343.5 323Q327 306 300 306Z"/><path id="gJetBrainsMonow400-544" d="M300 -10Q233 -10 183.5 13.5Q134 37 107 81Q80 125 80 184Q80 249 115.5 296Q151 343 228 380L325 427Q369 448 393 482Q417 516 417 557Q417 605 385.5 633Q354 661 300 661Q246 661 214.5 632.5Q183 604 183 556Q183 516 206.5 482Q230 448 271 428L368 382Q448 345 484 297.5Q520 250 520 184Q520 95 460.5 42.5Q401 -10 300 -10ZM300 70Q361 70 396.5 101.5Q432 133 432 186Q432 229 409 264Q386 299 343 320L247 367Q167 406 131 451Q95 496 95 559Q95 615 120 656Q145 697 191 719Q237 741 300 741Q363 741 409 719Q455 697 480 656Q505 615 505 559Q505 496 469 451.5Q433 407 350 366L254 319Q213 299 190.5 264.5Q168 230 168 188Q168 134 203.5 102Q239 70 300 70Z"/><path id="gJetBrainsMonow400-540" d="M410 0V160H80V301L369 730H467L170 282V242H410V420H500V0Z"/><path id="gJetBrainsMonow400-970" d="M300 450Q233 450 191.5 490Q150 530 150 595Q150 660 191.5 700Q233 740 300 740Q368 740 409 700Q450 660 450 595Q450 530 409 490Q368 450 300 450ZM299 501Q340 501 365 527Q390 553 390 595Q390 638 365 664Q340 690 299 690Q259 690 234.5 664Q210 638 210 595Q210 553 234.5 527Q259 501 299 501Z"/><path id="gJetBrainsMonow400-89" d="M90 0V730H210L433 105Q431 130 428.5 166.5Q426 203 424.5 243.5Q423 284 423 320V730H510V0H390L168 625Q170 601 172 564.5Q174 528 175.5 487.5Q177 447 177 410V0Z"/><path id="gJetBrainsMonow400-572" d="M165 -160 245 151H375L245 -160Z"/><path id="gJetBrainsMonow400-542" d="M301 -10Q231 -10 178.5 19.5Q126 49 97 102Q68 155 68 225Q68 280 83.5 333Q99 386 130 435L313 730H413L206 398L210 395Q229 423 262 438Q295 453 336 453Q396 453 440 425Q484 397 508 346Q532 295 532 225Q532 155 503 102Q474 49 422.5 19.5Q371 -10 301 -10ZM300 70Q364 70 403 112.5Q442 155 442 225Q442 295 403 337.5Q364 380 300 380Q236 380 197 337.5Q158 295 158 225Q158 155 197 112.5Q236 70 300 70Z"/><path id="gJetBrainsMonow400-161" d="M109 0 25 730H111L166 190Q168 168 170 144.5Q172 121 173.5 100Q175 79 175 65Q177 79 178.5 100Q180 121 182.5 144.5Q185 168 188 190L256 730H349L411 190Q414 168 416.5 144.5Q419 121 421.5 100Q424 79 425 65Q426 79 427.5 100Q429 121 431.5 144.5Q434 168 436 190L493 730H575L489 0H376L314 550Q312 573 309.5 595Q307 617 305 636Q303 655 302 667Q301 655 298.5 636Q296 617 294 595Q292 573 289 550L222 0Z"/><path id="gJetBrainsMonow400-212" d="M268 -10Q186 -10 135.5 45Q85 100 85 194V355Q85 450 135 505Q185 560 268 560Q336 560 377 523Q418 486 418 424L400 445H420L418 570V730H508V0H418V105H400L418 126Q418 63 377 26.5Q336 -10 268 -10ZM298 68Q354 68 386 103Q418 138 418 200V350Q418 412 386 447Q354 482 298 482Q241 482 208 448Q175 414 175 350V200Q175 136 208 102Q241 68 298 68Z"/><path id="gJetBrainsMonow400-325" d="M299 -10Q204 -10 147 46.5Q90 103 90 200V550H180V200Q180 138 212 103.5Q244 69 299 69Q355 69 387.5 103.5Q420 138 420 200V550H510V200Q510 103 452 46.5Q394 -10 299 -10Z"/><path id="gJetBrainsMonow400-312" d="M283 -8Q227 -8 185.5 9.5Q144 27 119.5 59Q95 91 90 135H180Q186 106 212.5 89Q239 72 283 72H325Q378 72 404 93.5Q430 115 430 151Q430 186 406.5 206.5Q383 227 337 234L263 246Q182 260 142.5 296.5Q103 333 103 403Q103 477 150 517.5Q197 558 291 558H329Q408 558 456 521Q504 484 514 421H424Q418 447 394 462.5Q370 478 329 478H291Q240 478 216.5 459Q193 440 193 402Q193 368 213 352Q233 336 276 329L350 317Q439 303 479.5 265Q520 227 520 155Q520 79 471.5 35.5Q423 -8 325 -8Z"/><path id="gJetBrainsMonow400-262" d="M95 0V730H185V323H291L451 550H554L369 288L557 0H452L292 245H185V0Z"/></defs><defs><linearGradient id="sky" x1="0" y1="0" x2="0" y2="1"><stop offset="0" stop-color="#1b1030"/><stop offset=".42" stop-color="#7b2d5e"/><stop offset=".78" stop-color="#f3722c"/><stop offset="1" stop-color="#f9c74f"/></linearGradient><linearGradient id="gnd" x1="0" y1="0" x2="0" y2="1"><stop offset="0" stop-color="#1a1224"/><stop offset="1" stop-color="#0d1117"/></linearGradient><radialGradient id="sunglow"><stop offset="0" stop-color="#ffd166" stop-opacity=".55"/><stop offset="1" stop-color="#ffd166" stop-opacity="0"/></radialGradient><clipPath id="skyclip"><rect x="0" y="0" width="848" height="238"/></clipPath><filter id="dist" x="-6%" y="-14%" width="112%" height="128%"><feTurbulence type="fractalNoise" baseFrequency="1.1" numOctaves="3" seed="9" result="n"/><feColorMatrix in="n" type="luminanceToAlpha" result="l"/><feComponentTransfer in="l" result="m"><feFuncA type="discrete" tableValues="0 1 1 1 1 1 1 1 1 1"/></feComponentTransfer><feTurbulence type="fractalNoise" baseFrequency="0.05" numOctaves="2" seed="3" result="w"/><feDisplacementMap in="SourceGraphic" in2="w" scale="2.5" xChannelSelector="R" yChannelSelector="G" result="d"/><feComposite in="d" in2="m" operator="in"/></filter><filter id="glow" x="-30%" y="-30%" width="160%" height="160%"><feGaussianBlur stdDeviation="6" result="b"/><feMerge><feMergeNode in="b"/><feMergeNode in="SourceGraphic"/></feMerge></filter></defs><rect x="0" y="0" width="848" height="238" rx="0" fill="url(#sky)" stroke="none" stroke-width="1" /><circle cx="60" cy="30" r="1.4" fill="#fff"><animate attributeName="opacity" values=".2;1;.2" dur="2.0s" begin="0.0s" repeatCount="indefinite"/></circle><circle cx="140" cy="62" r="1" fill="#fff"><animate attributeName="opacity" values=".2;1;.2" dur="2.7s" begin="0.3s" repeatCount="indefinite"/></circle><circle cx="230" cy="24" r="1.2" fill="#fff"><animate attributeName="opacity" values=".2;1;.2" dur="3.4s" begin="0.6s" repeatCount="indefinite"/></circle><circle cx="520" cy="40" r="1.3" fill="#fff"><animate attributeName="opacity" values=".2;1;.2" dur="4.1s" begin="0.9s" repeatCount="indefinite"/></circle><circle cx="610" cy="18" r="1" fill="#fff"><animate attributeName="opacity" values=".2;1;.2" dur="2.0s" begin="1.2s" repeatCount="indefinite"/></circle><circle cx="700" cy="70" r="1.4" fill="#fff"><animate attributeName="opacity" values=".2;1;.2" dur="2.7s" begin="1.5s" repeatCount="indefinite"/></circle><circle cx="790" cy="36" r="1.1" fill="#fff"><animate attributeName="opacity" values=".2;1;.2" dur="3.4s" begin="1.8s" repeatCount="indefinite"/></circle><circle cx="450" cy="80" r="1" fill="#fff"><animate attributeName="opacity" values=".2;1;.2" dur="4.1s" begin="2.1s" repeatCount="indefinite"/></circle><circle cx="360" cy="20" r="1" fill="#fff"><animate attributeName="opacity" values=".2;1;.2" dur="2.0s" begin="2.4s" repeatCount="indefinite"/></circle><g clip-path="url(#skyclip)"><circle cx="612" cy="244" r="150" fill="url(#sunglow)"/><circle cx="612" cy="244" r="62" fill="#ffd166"/></g><polygon points="0,238 0,200 60,196 92,170 150,170 176,196 250,206 300,210 340,238" fill="#1c0f26"/><polygon points="380,238 430,214 470,214 500,196 560,196 590,214 700,214 740,190 800,190 826,214 848,220 848,238" fill="#2a1638"/><rect x="0" y="238" width="848" height="102" rx="0" fill="url(#gnd)" stroke="none" stroke-width="1" /><polygon points="470,238 500,238 620,340 300,340" fill="#15101c"/><line x1="485" y1="238" x2="460" y2="340" stroke="#f9c74f" stroke-width="2" stroke-dasharray="10 14" opacity=".8"><animate attributeName="stroke-dashoffset" from="24" to="0" dur=".9s" repeatCount="indefinite"/></line><path d="M632,236 L632,180 Q632,168 644,168 L752,168 Q766,168 768,180 L784,196 L784,236 Z" fill="#0d0912" stroke="#3a2450" stroke-width="1.5"/><rect x="646" y="180" width="26" height="18" rx="2" fill="#f9c74f" stroke="none" stroke-width="1" opacity=".85"><animate attributeName="opacity" values=".85;.5;.85" dur="3s" repeatCount="indefinite"/></rect><rect width="0" height="0"/><rect x="682" y="180" width="26" height="18" rx="2" fill="#f9c74f" stroke="none" stroke-width="1" opacity=".7"/><rect x="752" y="186" width="22" height="14" rx="2" fill="#f9c74f" stroke="none" stroke-width="1" opacity=".6"/><rect x="716" y="162" width="18" height="8" rx="1" fill="#3a2450" stroke="none" stroke-width="1" /><circle cx="662" cy="236" r="10" fill="#0d0912" stroke="#3a2450" stroke-width="2"/><circle cx="750" cy="236" r="10" fill="#0d0912" stroke="#3a2450" stroke-width="2"/><circle cx="725" cy="158" r="3" fill="#cfd3d8" opacity="0"><animate attributeName="cy" values="158;116" dur="2.4s" begin="0.0s" repeatCount="indefinite"/><animate attributeName="cx" values="725;736" dur="2.4s" begin="0.0s" repeatCount="indefinite"/><animate attributeName="opacity" values="0;.55;0" dur="2.4s" begin="0.0s" repeatCount="indefinite"/></circle><circle cx="725" cy="158" r="4" fill="#cfd3d8" opacity="0"><animate attributeName="cy" values="158;116" dur="2.4s" begin="0.8s" repeatCount="indefinite"/><animate attributeName="cx" values="725;736" dur="2.4s" begin="0.8s" repeatCount="indefinite"/><animate attributeName="opacity" values="0;.55;0" dur="2.4s" begin="0.8s" repeatCount="indefinite"/></circle><circle cx="725" cy="158" r="5" fill="#cfd3d8" opacity="0"><animate attributeName="cy" values="158;116" dur="2.4s" begin="1.6s" repeatCount="indefinite"/><animate attributeName="cx" values="725;736" dur="2.4s" begin="1.6s" repeatCount="indefinite"/><animate attributeName="opacity" values="0;.55;0" dur="2.4s" begin="1.6s" repeatCount="indefinite"/></circle><g opacity="0"><animate attributeName="opacity" values="0;1" begin="0.20s" dur=".05s" fill="freeze"/><animateTransform attributeName="transform" type="translate" values="0 -420;0 10;0 -4;0 0" keyTimes="0;.62;.82;1" begin="0.20s" dur=".85s" fill="freeze" calcMode="spline" keySplines="0.3 0 0.7 1;0.4 0 0.6 1;0.4 0 0.6 1"/><rect x="40" y="54" width="116" height="132" rx="6" fill="#0b3b2e" stroke="#8ff0a4" stroke-width="2.5" /><g fill="#eafff0" ><use href="#gBarlowCondensedMedium-490" transform="translate(48.00 70.00) scale(0.01716 -0.01716)"/><use href="#gBarlowCondensedMedium-495" transform="translate(52.56 70.00) scale(0.01716 -0.01716)"/></g><g fill="#eafff0" ><use href="#gBarlowCondensedBold-119" transform="translate(83.35 135.84) scale(0.06600 -0.06600)"/></g><g fill="#8ff0a4" ><use href="#gBarlowCondensedMedium-119" transform="translate(84.34 174.00) scale(0.01320 -0.01320)"/><use href="#gBarlowCondensedMedium-311" transform="translate(89.96 174.00) scale(0.01320 -0.01320)"/><use href="#gBarlowCondensedMedium-259" transform="translate(95.66 174.00) scale(0.01320 -0.01320)"/><use href="#gBarlowCondensedMedium-229" transform="translate(98.18 174.00) scale(0.01320 -0.01320)"/><use href="#gBarlowCondensedMedium-311" transform="translate(101.95 174.00) scale(0.01320 -0.01320)"/><use href="#gBarlowCondensedMedium-299" transform="translate(107.65 174.00) scale(0.01320 -0.01320)"/></g><g fill="#9fb8aa" ><use href="#gBarlowCondensedMedium-492" transform="translate(120.93 70.00) scale(0.01452 -0.01452)"/><use href="#gBarlowCondensedMedium-491" transform="translate(127.00 70.00) scale(0.01452 -0.01452)"/><use href="#gBarlowCondensedMedium-546" transform="translate(133.03 70.00) scale(0.01452 -0.01452)"/><use href="#gBarlowCondensedMedium-489" transform="translate(135.41 70.00) scale(0.01452 -0.01452)"/><use href="#gBarlowCondensedMedium-495" transform="translate(141.90 70.00) scale(0.01452 -0.01452)"/></g></g><g opacity="0"><animate attributeName="opacity" values="0;1" begin="0.45s" dur=".05s" fill="freeze"/><animateTransform attributeName="transform" type="translate" values="0 -420;0 10;0 -4;0 0" keyTimes="0;.62;.82;1" begin="0.45s" dur=".85s" fill="freeze" calcMode="spline" keySplines="0.3 0 0.7 1;0.4 0 0.6 1;0.4 0 0.6 1"/><rect x="168" y="54" width="116" height="132" rx="6" fill="#0b3b2e" stroke="#8ff0a4" stroke-width="2.5" /><g fill="#eafff0" ><use href="#gBarlowCondensedMedium-493" transform="translate(176.00 70.00) scale(0.01716 -0.01716)"/><use href="#gBarlowCondensedMedium-496" transform="translate(182.69 70.00) scale(0.01716 -0.01716)"/></g><g fill="#eafff0" ><use href="#gBarlowCondensedBold-4" transform="translate(195.57 135.84) scale(0.06600 -0.06600)"/><use href="#gBarlowCondensedBold-230" transform="translate(227.32 135.84) scale(0.06600 -0.06600)"/></g><g fill="#8ff0a4" ><use href="#gBarlowCondensedMedium-119" transform="translate(213.20 174.00) scale(0.01320 -0.01320)"/><use href="#gBarlowCondensedMedium-240" transform="translate(218.83 174.00) scale(0.01320 -0.01320)"/><use href="#gBarlowCondensedMedium-259" transform="translate(221.62 174.00) scale(0.01320 -0.01320)"/><use href="#gBarlowCondensedMedium-338" transform="translate(224.15 174.00) scale(0.01320 -0.01320)"/><use href="#gBarlowCondensedMedium-208" transform="translate(229.28 174.00) scale(0.01320 -0.01320)"/><use href="#gBarlowCondensedMedium-299" transform="translate(234.78 174.00) scale(0.01320 -0.01320)"/></g><g fill="#9fb8aa" ><use href="#gBarlowCondensedMedium-490" transform="translate(246.16 70.00) scale(0.01452 -0.01452)"/><use href="#gBarlowCondensedMedium-489" transform="translate(250.02 70.00) scale(0.01452 -0.01452)"/><use href="#gBarlowCondensedMedium-496" transform="translate(256.51 70.00) scale(0.01452 -0.01452)"/><use href="#gBarlowCondensedMedium-546" transform="translate(261.31 70.00) scale(0.01452 -0.01452)"/><use href="#gBarlowCondensedMedium-497" transform="translate(264.24 70.00) scale(0.01452 -0.01452)"/><use href="#gBarlowCondensedMedium-496" transform="translate(270.47 70.00) scale(0.01452 -0.01452)"/></g></g><g opacity="0"><animate attributeName="opacity" values="0;1" begin="0.70s" dur=".05s" fill="freeze"/><animateTransform attributeName="transform" type="translate" values="0 -420;0 10;0 -4;0 0" keyTimes="0;.62;.82;1" begin="0.70s" dur=".85s" fill="freeze" calcMode="spline" keySplines="0.3 0 0.7 1;0.4 0 0.6 1;0.4 0 0.6 1"/><rect x="296" y="54" width="116" height="132" rx="6" fill="#0b3b2e" stroke="#8ff0a4" stroke-width="2.5" /><g fill="#eafff0" ><use href="#gBarlowCondensedMedium-490" transform="translate(304.00 70.00) scale(0.01716 -0.01716)"/><use href="#gBarlowCondensedMedium-497" transform="translate(308.56 70.00) scale(0.01716 -0.01716)"/></g><g fill="#eafff0" ><use href="#gBarlowCondensedBold-4" transform="translate(327.40 135.84) scale(0.06600 -0.06600)"/><use href="#gBarlowCondensedBold-299" transform="translate(359.21 135.84) scale(0.06600 -0.06600)"/></g><g fill="#8ff0a4" ><use href="#gBarlowCondensedMedium-4" transform="translate(340.73 174.00) scale(0.01320 -0.01320)"/><use href="#gBarlowCondensedMedium-299" transform="translate(346.48 174.00) scale(0.01320 -0.01320)"/><use href="#gBarlowCondensedMedium-230" transform="translate(350.39 174.00) scale(0.01320 -0.01320)"/><use href="#gBarlowCondensedMedium-271" transform="translate(355.97 174.00) scale(0.01320 -0.01320)"/><use href="#gBarlowCondensedMedium-266" transform="translate(361.57 174.00) scale(0.01320 -0.01320)"/></g><g fill="#9fb8aa" ><use href="#gBarlowCondensedMedium-492" transform="translate(376.88 70.00) scale(0.01452 -0.01452)"/><use href="#gBarlowCondensedMedium-498" transform="translate(382.95 70.00) scale(0.01452 -0.01452)"/><use href="#gBarlowCondensedMedium-546" transform="translate(388.96 70.00) scale(0.01452 -0.01452)"/><use href="#gBarlowCondensedMedium-498" transform="translate(391.89 70.00) scale(0.01452 -0.01452)"/><use href="#gBarlowCondensedMedium-494" transform="translate(397.90 70.00) scale(0.01452 -0.01452)"/></g></g><g filter="url(#glow)"><g fill="#eafff0" ><g opacity="0"><set attributeName="opacity" to="1" begin="1.30s" fill="freeze"/><use href="#gSpecialElite-56" transform="translate(42.00 276.00) scale(0.00830 -0.00830)"/></g><g opacity="0"><set attributeName="opacity" to="1" begin="1.33s" fill="freeze"/><use href="#gSpecialElite-38" transform="translate(50.83 276.00) scale(0.00830 -0.00830)"/></g><g opacity="0"><set attributeName="opacity" to="1" begin="1.37s" fill="freeze"/><use href="#gSpecialElite-44" transform="translate(60.44 276.00) scale(0.00830 -0.00830)"/></g><g opacity="0"><set attributeName="opacity" to="1" begin="1.41s" fill="freeze"/><use href="#gSpecialElite-38" transform="translate(70.36 276.00) scale(0.00830 -0.00830)"/></g><g opacity="0"><set attributeName="opacity" to="1" begin="1.44s" fill="freeze"/><use href="#gSpecialElite-55" transform="translate(79.97 276.00) scale(0.00830 -0.00830)"/></g><g opacity="0"><set attributeName="opacity" to="1" begin="1.48s" fill="freeze"/><use href="#gSpecialElite-84" transform="translate(89.81 276.00) scale(0.00830 -0.00830)"/></g><g opacity="0"><set attributeName="opacity" to="1" begin="1.51s" fill="freeze"/><use href="#gSpecialElite-41" transform="translate(100.63 276.00) scale(0.00830 -0.00830)"/></g><g opacity="0"><set attributeName="opacity" to="1" begin="1.55s" fill="freeze"/><use href="#gSpecialElite-38" transform="translate(110.88 276.00) scale(0.00830 -0.00830)"/></g><g opacity="0"><set attributeName="opacity" to="1" begin="1.58s" fill="freeze"/><use href="#gSpecialElite-49" transform="translate(120.49 276.00) scale(0.00830 -0.00830)"/></g><g opacity="0"><set attributeName="opacity" to="1" begin="1.62s" fill="freeze"/><use href="#gSpecialElite-60" transform="translate(129.08 276.00) scale(0.00830 -0.00830)"/></g><g opacity="0"><set attributeName="opacity" to="1" begin="1.65s" fill="freeze"/><use href="#gSpecialElite-38" transform="translate(140.61 276.00) scale(0.00830 -0.00830)"/></g><g opacity="0"><set attributeName="opacity" to="1" begin="1.69s" fill="freeze"/><use href="#gSpecialElite-49" transform="translate(150.23 276.00) scale(0.00830 -0.00830)"/></g><g opacity="0"><set attributeName="opacity" to="1" begin="1.72s" fill="freeze"/><use href="#gSpecialElite-38" transform="translate(159.41 276.00) scale(0.00830 -0.00830)"/></g><g opacity="0"><set attributeName="opacity" to="1" begin="1.76s" fill="freeze"/><use href="#gSpecialElite-11" transform="translate(169.03 276.00) scale(0.00830 -0.00830)"/></g><g opacity="0"><set attributeName="opacity" to="1" begin="1.79s" fill="freeze"/><use href="#gSpecialElite-11" transform="translate(178.96 276.00) scale(0.00830 -0.00830)"/></g><g opacity="0"><set attributeName="opacity" to="1" begin="1.83s" fill="freeze"/><use href="#gSpecialElite-11" transform="translate(188.90 276.00) scale(0.00830 -0.00830)"/></g><g opacity="0"><set attributeName="opacity" to="1" begin="1.93s" fill="freeze"/><use href="#gSpecialElite-161" transform="translate(208.80 276.00) scale(0.00830 -0.00830)"/></g><g opacity="0"><set attributeName="opacity" to="1" begin="2.04s" fill="freeze"/><use href="#gSpecialElite-38" transform="translate(222.72 276.00) scale(0.00830 -0.00830)"/></g><g opacity="0"><set attributeName="opacity" to="1" begin="2.07s" fill="freeze"/><use href="#gSpecialElite-368" transform="translate(232.33 276.00) scale(0.00830 -0.00830)"/></g><g opacity="0"><set attributeName="opacity" to="1" begin="2.10s" fill="freeze"/><use href="#gSpecialElite-48" transform="translate(238.27 276.00) scale(0.00830 -0.00830)"/></g><g opacity="0"><set attributeName="opacity" to="1" begin="2.14s" fill="freeze"/><use href="#gSpecialElite-368" transform="translate(248.82 276.00) scale(0.00830 -0.00830)"/></g><g opacity="0"><set attributeName="opacity" to="1" begin="2.18s" fill="freeze"/><use href="#gSpecialElite-38" transform="translate(254.77 276.00) scale(0.00830 -0.00830)"/></g><g opacity="0"><set attributeName="opacity" to="1" begin="2.21s" fill="freeze"/><use href="#gSpecialElite-368" transform="translate(264.38 276.00) scale(0.00830 -0.00830)"/></g><g opacity="0"><set attributeName="opacity" to="1" begin="2.28s" fill="freeze"/><use href="#gSpecialElite-21" transform="translate(275.30 276.00) scale(0.00830 -0.00830)"/></g><g opacity="0"><set attributeName="opacity" to="1" begin="2.32s" fill="freeze"/><use href="#gSpecialElite-42" transform="translate(283.95 276.00) scale(0.00830 -0.00830)"/></g><g opacity="0"><set attributeName="opacity" to="1" begin="2.35s" fill="freeze"/><use href="#gSpecialElite-56" transform="translate(293.20 276.00) scale(0.00830 -0.00830)"/></g><g opacity="0"><set attributeName="opacity" to="1" begin="2.39s" fill="freeze"/><use href="#gSpecialElite-56" transform="translate(302.03 276.00) scale(0.00830 -0.00830)"/></g><g opacity="0"><set attributeName="opacity" to="1" begin="2.42s" fill="freeze"/><use href="#gSpecialElite-42" transform="translate(310.86 276.00) scale(0.00830 -0.00830)"/></g><g opacity="0"><set attributeName="opacity" to="1" begin="2.49s" fill="freeze"/><use href="#gSpecialElite-27" transform="translate(325.09 276.00) scale(0.00830 -0.00830)"/></g><g opacity="0"><set attributeName="opacity" to="1" begin="2.53s" fill="freeze"/><use href="#gSpecialElite-46" transform="translate(334.49 276.00) scale(0.00830 -0.00830)"/></g><g opacity="0"><set attributeName="opacity" to="1" begin="2.56s" fill="freeze"/><use href="#gSpecialElite-51" transform="translate(344.16 276.00) scale(0.00830 -0.00830)"/></g><g opacity="0"><set attributeName="opacity" to="1" begin="2.60s" fill="freeze"/><use href="#gSpecialElite-48" transform="translate(354.91 276.00) scale(0.00830 -0.00830)"/></g><g opacity="0"><set attributeName="opacity" to="1" begin="2.63s" fill="freeze"/><use href="#gSpecialElite-50" transform="translate(365.46 276.00) scale(0.00830 -0.00830)"/></g><g opacity="0"><set attributeName="opacity" to="1" begin="2.67s" fill="freeze"/><use href="#gSpecialElite-38" transform="translate(376.74 276.00) scale(0.00830 -0.00830)"/></g><g opacity="0"><set attributeName="opacity" to="1" begin="2.70s" fill="freeze"/><use href="#gSpecialElite-51" transform="translate(386.35 276.00) scale(0.00830 -0.00830)"/></g></g></g><rect x="399.1" y="264" width="10" height="14" fill="#8ff0a4" opacity="0"><set attributeName="opacity" to="1" begin="1.3s"/><animate attributeName="opacity" values="1;1;0;0" keyTimes="0;.5;.5;1" dur="1s" begin="2.74s" repeatCount="indefinite"/></rect><g fill="#6b8577" ><use href="#gJetBrainsMonow400-235" transform="translate(16.00 328.00) scale(0.01000 -0.01000)"/><use href="#gJetBrainsMonow400-246" transform="translate(22.00 328.00) scale(0.01000 -0.01000)"/><use href="#gJetBrainsMonow400-236" transform="translate(28.00 328.00) scale(0.01000 -0.01000)"/><use href="#gJetBrainsMonow400-571" transform="translate(34.00 328.00) scale(0.01000 -0.01000)"/><use href="#gJetBrainsMonow400-537" transform="translate(46.00 328.00) scale(0.01000 -0.01000)"/><use href="#gJetBrainsMonow400-602" transform="translate(58.00 328.00) scale(0.01000 -0.01000)"/><use href="#gJetBrainsMonow400-320" transform="translate(70.00 328.00) scale(0.01000 -0.01000)"/><use href="#gJetBrainsMonow400-243" transform="translate(76.00 328.00) scale(0.01000 -0.01000)"/><use href="#gJetBrainsMonow400-216" transform="translate(82.00 328.00) scale(0.01000 -0.01000)"/><use href="#gJetBrainsMonow400-265" transform="translate(94.00 328.00) scale(0.01000 -0.01000)"/><use href="#gJetBrainsMonow400-180" transform="translate(100.00 328.00) scale(0.01000 -0.01000)"/><use href="#gJetBrainsMonow400-205" transform="translate(106.00 328.00) scale(0.01000 -0.01000)"/><use href="#gJetBrainsMonow400-580" transform="translate(124.00 328.00) scale(0.01000 -0.01000)"/><use href="#gJetBrainsMonow400-539" transform="translate(142.00 328.00) scale(0.01000 -0.01000)"/><use href="#gJetBrainsMonow400-541" transform="translate(148.00 328.00) scale(0.01000 -0.01000)"/><use href="#gJetBrainsMonow400-571" transform="translate(154.00 328.00) scale(0.01000 -0.01000)"/><use href="#gJetBrainsMonow400-536" transform="translate(160.00 328.00) scale(0.01000 -0.01000)"/><use href="#gJetBrainsMonow400-544" transform="translate(166.00 328.00) scale(0.01000 -0.01000)"/><use href="#gJetBrainsMonow400-540" transform="translate(172.00 328.00) scale(0.01000 -0.01000)"/><use href="#gJetBrainsMonow400-540" transform="translate(178.00 328.00) scale(0.01000 -0.01000)"/><use href="#gJetBrainsMonow400-970" transform="translate(184.00 328.00) scale(0.01000 -0.01000)"/><use href="#gJetBrainsMonow400-89" transform="translate(196.00 328.00) scale(0.01000 -0.01000)"/><use href="#gJetBrainsMonow400-572" transform="translate(202.00 328.00) scale(0.01000 -0.01000)"/><use href="#gJetBrainsMonow400-537" transform="translate(214.00 328.00) scale(0.01000 -0.01000)"/><use href="#gJetBrainsMonow400-536" transform="translate(220.00 328.00) scale(0.01000 -0.01000)"/><use href="#gJetBrainsMonow400-542" transform="translate(226.00 328.00) scale(0.01000 -0.01000)"/><use href="#gJetBrainsMonow400-571" transform="translate(232.00 328.00) scale(0.01000 -0.01000)"/><use href="#gJetBrainsMonow400-542" transform="translate(238.00 328.00) scale(0.01000 -0.01000)"/><use href="#gJetBrainsMonow400-541" transform="translate(244.00 328.00) scale(0.01000 -0.01000)"/><use href="#gJetBrainsMonow400-536" transform="translate(250.00 328.00) scale(0.01000 -0.01000)"/><use href="#gJetBrainsMonow400-540" transform="translate(256.00 328.00) scale(0.01000 -0.01000)"/><use href="#gJetBrainsMonow400-970" transform="translate(262.00 328.00) scale(0.01000 -0.01000)"/><use href="#gJetBrainsMonow400-161" transform="translate(274.00 328.00) scale(0.01000 -0.01000)"/><use href="#gJetBrainsMonow400-580" transform="translate(292.00 328.00) scale(0.01000 -0.01000)"/><use href="#gJetBrainsMonow400-212" transform="translate(310.00 328.00) scale(0.01000 -0.01000)"/><use href="#gJetBrainsMonow400-325" transform="translate(316.00 328.00) scale(0.01000 -0.01000)"/><use href="#gJetBrainsMonow400-312" transform="translate(322.00 328.00) scale(0.01000 -0.01000)"/><use href="#gJetBrainsMonow400-262" transform="translate(328.00 328.00) scale(0.01000 -0.01000)"/></g></svg>